<?xml version="1.0" standalone="no"?>
<!DOCTYPE svg PUBLIC "-//W3C//DTD SVG 20010904//EN"
 "http://www.w3.org/TR/2001/REC-SVG-20010904/DTD/svg10.dtd">
<svg version="1.0" xmlns="http://www.w3.org/2000/svg"
 width="48.000000pt" height="48.000000pt" viewBox="0 0 48.000000 48.000000"
 preserveAspectRatio="xMidYMid meet">

<g transform="translate(0.000000,48.000000) scale(0.100000,-0.100000)"
fill="#000000" stroke="none">
<path d="M90 466 c0 -22 29 -41 42 -28 7 7 20 12 31 12 13 0 18 -6 15 -22 -2
-18 -9 -22 -30 -20 -19 2 -28 -2 -29 -13 -1 -8 -2 -20 -3 -27 -1 -7 10 -15 24
-18 14 -3 26 -14 28 -23 5 -25 -26 -32 -49 -11 -16 14 -24 16 -37 7 -9 -6 -15
-17 -13 -25 15 -53 14 -60 -10 -56 -19 2 -23 8 -21 29 2 20 -2 28 -17 32 -21
5 -21 2 -21 -149 l0 -154 183 2 182 3 3 25 c2 20 -5 29 -34 45 l-36 19 -19
-24 c-40 -55 -49 -61 -68 -51 -41 22 -35 69 10 78 43 8 53 26 39 68 -14 43
-32 52 -66 34 -31 -16 -59 -2 -59 31 0 32 29 49 55 32 35 -22 64 -14 82 22 16
32 16 35 -3 55 -11 12 -26 21 -34 21 -7 0 -17 10 -21 22 -9 30 29 62 57 48 10
-6 19 -18 19 -28 0 -9 7 -26 15 -36 13 -17 19 -18 55 -7 43 13 45 17 34 84
l-7 37 -148 0 c-120 0 -149 -3 -149 -14z"/>
<path d="M466 465 c4 -8 -1 -26 -10 -40 -22 -33 -20 -62 4 -68 18 -5 20 0 20
59 0 35 -4 64 -10 64 -5 0 -7 -7 -4 -15z"/>
<path d="M36 442 c-3 -6 -1 -14 5 -17 15 -10 25 3 12 16 -7 7 -13 7 -17 1z"/>
<path d="M55 370 c-3 -5 1 -10 9 -10 9 0 16 5 16 10 0 6 -4 10 -9 10 -6 0 -13
-4 -16 -10z"/>
<path d="M0 354 c0 -8 5 -12 10 -9 6 4 8 11 5 16 -9 14 -15 11 -15 -7z"/>
<path d="M390 291 c0 -24 13 -33 35 -25 23 9 14 38 -13 42 -16 3 -22 -2 -22
-17z"/>
<path d="M300 221 c0 -27 19 -36 37 -18 18 18 9 37 -18 37 -12 0 -19 -7 -19
-19z"/>
<path d="M471 204 c0 -11 3 -14 6 -6 3 7 2 16 -1 19 -3 4 -6 -2 -5 -13z"/>
<path d="M384 145 c-7 -18 3 -35 21 -35 15 0 28 27 19 41 -8 14 -34 11 -40 -6z"/>
<path d="M444 63 c-21 -4 -38 -38 -28 -55 3 -4 18 -8 35 -8 27 0 29 3 29 35 0
19 -3 34 -7 34 -5 -1 -18 -4 -29 -6z"/>
</g>
</svg>
