<?xml version="1.0" encoding="utf-8"?>
<!DOCTYPE svg PUBLIC "-//W3C//DTD SVG 1.1//EN" "http://www.w3.org/Graphics/SVG/1.1/DTD/svg11.dtd">
<svg version="1.1" id="Layer_1" xmlns="http://www.w3.org/2000/svg" xmlns:xlink="http://www.w3.org/1999/xlink" x="0px" y="0px"
	 viewBox="0 0 1920 1473" enable-background="new 0 0 1920 1473" xml:space="preserve">
<g>
	<path fill="#ADC5C6" stroke="#ADC5C6" stroke-width="0.0938" d="M0,0h1920v1168.1801c-5.65-0.0601-11.3101,0.23-16.9301-0.4
		c-35.7699-0.0801-71.5599-0.01-107.33-0.0601c2.14-9.2899,4.36-18.5599,6.64-27.8099c0.79-3.28,1.77-6.54,1.88-9.92
		c0.1-38.12-0.14-76.24,0.11-114.35c-7.6899-3.19-15.61-5.76-23.4399-8.57c0.5,0.11,1.49,0.32,1.99,0.42
		c-0.0701-2.14-0.12-4.26-0.16-6.38c-4.86-3.45-10.5601-5.7-15.05-9.6c-0.52-6.15,0.04-12.34-0.22-18.5
		c-5.29-4.59-11.42-8.21-16.34-13.18c-1.01-9.91,0.09-19.94-0.4601-29.89c0.01-1.02-0.35-1.86-1.08-2.51
		c-74.16-70.17-148.37-140.31-222.47-210.55c-23.96-22.22-47.3201-45.08-71.29-67.29c0.86-8.5-0.33-17.07-0.63-25.59
		c-2.58-38.44-12.0699-77.33-33.4099-109.84c-8.6901-13.08-19.9401-25.09-34.42-31.68c-8.5601-3.73-17.79-5.68-27.02-6.8
		c-0.16-25.68-2.02-51.49-7.76-76.57c-4.03-16.95-9.92-33.49-17.88-48.99c-7.6699-14.8-17.4-28.96-30.7-39.26
		c-11.85-9.48-27.1-13.21-41.92-14.6c-0.9-23.5-3.4299-47.09-9.6899-69.81c-5.3301-18.76-12.76-37.04-23.29-53.51
		c-8.36-12.94-19-24.96-32.8101-32.19c-10.6399-5.24-22.5099-7.79-34.3099-8.38c-18.49-0.95-37.08,5.52-51.26,17.37
		c-21.9399,18.36-36.1899,45.61-38.85,74.1c-1.78,14.71,0.47,29.48-0.0701,44.23c-0.34,10.06-0.7,20.17-2.1899,30.14
		c-0.76,9.37-3.3201,18.48-3.99,27.88c-4,37.02-0.5601,74.24,1.1899,111.28c-16.15-0.1-32.2999-0.15-48.45-0.03
		c-0.1,25.96,0.21,51.93-0.14,77.88c-9.93,0.44-19.91-0.5699-29.82,0.51c-22.68-13.5-45.45-26.87-68.43-39.86
		c-30.79-16.95-61.52-34.01-92.65-50.32c-16.48-9.12-33.48-17.21-50.38-25.51c-25.97-11.88-52.41-22.73-78.29-34.8
		c-6.57-3.04-13.51-5.13-20.27-7.68c-21.53-7.59-42.8799-15.72-64.79-22.19c-8.64-2.41-17-5.63-25.51-8.42
		c-11.74-3.84-24.4-4.25-35.81-9.2c-6.07-2.69-12.85-1.7-19.28-1.91c-7-0.26-13.67,2.4-19.85,5.4
		c-14.97,9.12-29.65,18.73-43.68,29.25c-11.7,9.58-23.02,19.62-33.63,30.4c-6.06,5.34-10.6,12.06-16.06,17.95
		c-3.45,3.75-5.65,8.39-8.22,12.74c-2.71,4.69-5.92,9.21-7.3,14.52c-3.85,14.35-8.82,28.84-8.07,43.9
		c0.31,6.38-1.08,13.14,1.69,19.16c4.54,11.06,8.59,22.36,13.97,33.04c3.53,9.45,9.43,17.71,14.33,26.46
		c13.6,24.53,25.82,49.84,36.23,75.89c4.56,10.46,9.45,20.78,13.97,31.26c4.4,11.18,8.88,22.34,13.19,33.56
		c3.95,12.65,6.92,25.6,11.03,38.22c3.13,10.3199,6.59,20.55,9.51,30.93c3.36,19.24,6.55,38.51,9.39,57.83
		c0.16,106.61,0.02,213.22,0.06,319.8301c-0.01,10.6899-0.02,21.38-0.01,32.08c-16.17-0.52-32.37,0.36-48.54-0.35
		c-4.33,0.24-8.67,0.5699-13,0.08c-13-0.2-26.03,0.76-39.04-0.1c-7.35-0.38-14.69,0.88-22.03,0.08c-7.98-0.25-15.98,0.29-23.96-0.2
		c-7.01-0.46-14,1-20.99,0.1799c-8.34-0.9199-16.68,0.9501-25-0.1c-9.36-0.0399-18.73-0.2999-28.08,0.4
		c-13.63-0.74-27.32-0.67-40.97-0.14c-27.32-0.72-54.67-0.09-82.01-0.37c-8.29,0.55-16.6,0.17-24.9,0.01
		c-8.35,0.59-16.7-0.16-25.06,0.02c-32.01-0.05-64.02-0.01-96.03-0.03c-10-0.14-19.98,0.12-29.96,0.54V0z"/>
	<path fill="#ADC5C6" stroke="#ADC5C6" stroke-width="0.0938" d="M1701.54,931.31c0.51-0.03,1.5399-0.11,2.0599-0.14l-0.16,0.65
		c-1.1,3.63-0.6899,7.44-0.6299,11.18C1700.24,939.8,1702.1899,935.11,1701.54,931.31z"/>
	<path fill="#ADC5C6" stroke="#ADC5C6" stroke-width="0.0938" d="M1729.25,950.09c0.59,0.69,1.1801,1.39,1.78,2.12
		c0.48,3.21,0.4,6.46,0.27,9.7c-0.7301-0.5699-1.39-1.16-2-1.79C1729.17,956.77,1729.27,953.43,1729.25,950.09z"/>
	<path fill="#ADC5C6" stroke="#ADC5C6" stroke-width="0.0938" d="M1735.4399,955.41c0.7001,0.23,1.4601,0.5,2.2201,0.79
		c-1.3201,3.12-1.02,6.54-0.6801,9.83C1734.15,963.34,1736.08,958.85,1735.4399,955.41z"/>
	<path fill="#ADC5C6" stroke="#ADC5C6" stroke-width="0.0938" d="M1744.73,962.21c0.92,0.37,1.87,0.75,2.84,1.14l-0.0499,0.27
		c-0.59,2.82-0.8301,5.7-0.88,8.59c-0.49-0.3-1.48-0.89-1.97-1.19C1744.73,968.08,1744.85,965.14,1744.73,962.21z"/>
	<path fill="#ADC5C6" stroke="#ADC5C6" stroke-width="0.0938" d="M1754.1899,968.08c0.9501,0.36,1.5901,1.03,1.89,2
		c0.51,3.4-1.11,8.08,2.65,10.05c0.11-2.69,0.17-5.38,0.23-8.06c0.8,0.44,1.62,0.89,2.4701,1.35l-0.04,0.33
		c-0.39,2.67-0.46,5.38-0.2001,8.09c-2.75-0.98-5.3999-2.22-7.71-4.01l0.41-0.77c0.12-0.22,0.34-0.67,0.46-0.89
		C1754.5699,973.47,1754.49,970.76,1754.1899,968.08z"/>
	<path stroke="#000000" stroke-width="0.0938" d="M1110.75,149.74c14.1801-11.85,32.77-18.32,51.26-17.37
		c11.8,0.59,23.67,3.14,34.3099,8.38c13.8101,7.23,24.4501,19.25,32.8101,32.19c10.53,16.47,17.96,34.75,23.29,53.51
		c6.26,22.72,8.7899,46.31,9.6899,69.81c14.8201,1.39,30.0701,5.12,41.92,14.6c13.2999,10.3,23.03,24.46,30.7,39.26
		c7.96,15.5,13.85,32.04,17.88,48.99c5.74,25.08,7.6,50.89,7.76,76.57c9.23,1.12,18.46,3.07,27.02,6.8
		c14.48,6.59,25.73,18.6,34.42,31.68c21.34,32.51,30.83,71.4,33.4099,109.84c0.3,8.52,1.49,17.09,0.63,25.59
		c-18.01-17.31-36.2899-34.32-54.35-51.56c0.04-13.82,0.03-27.64,0-41.46c-14.75-13.67-29.46-27.38-44.11-41.15
		c-9.4301-1-18.9301-0.73-28.38-0.27c-7.22-0.63-14.45-0.01-21.67-0.47c14.85,0.11,29.7001-0.01,44.55,0.01
		c-2.8-18.74-8.58-37.04-16.71-54.15c-7.77-15.86-18.4801-30.37-31.76-42.04c-11.9-10.01-27.6901-14.89-43.15-14.15
		c0.0499,1.24,0.11,2.48,0.1899,3.74c-1.34-5.92-0.77-12.03-1.6-18c-1.39-20.52-4.04-41.06-9.5499-60.92
		c-5.51-20.74-14.65-40.67-27.79-57.71c-8.53-10.43-18.1801-20.63-30.84-25.92c-12.6801-5.6-27.17-6.36-40.64-3.5
		c-16.89,3.27-32.0701,12.09-45.66,22.32c-13.71,10.5-26.75,22.81-34.24,38.64c-0.1801-1.6-0.34-3.2-0.5-4.79
		c1.49-9.97,1.85-20.08,2.1899-30.14c0.54-14.75-1.71-29.52,0.0701-44.23C1074.5601,195.35,1088.8101,168.1,1110.75,149.74z"/>
	<path stroke="#000000" stroke-width="0.0938" d="M507.9,430.08c3.83-1.16,7.87-0.93,11.82-0.72
		c-0.18,112.86-0.0099,225.73-0.0699,338.6c-0.09,16.13,0.16,32.2599-0.13,48.39c-2.84-19.3199-6.03-38.59-9.39-57.83
		c-2.92-10.38-6.38-20.61-9.51-30.93c-4.11-12.6201-7.08-25.57-11.03-38.22c-4.31-11.22-8.79-22.38-13.19-33.56
		c-4.52-10.48-9.41-20.8-13.97-31.26c-10.41-26.05-22.63-51.36-36.23-75.89c-4.9-8.75-10.8-17.0099-14.33-26.46
		c6.1-10.01,12.09-20.09,18.11-30.14c3.16-5.38,7.14-10.19,10.86-15.16c5.67-7.31,11.39-14.62,17.9-21.2
		c6.33-5.95,14.1-10.05,21.68-14.16C489.25,437,498.32,432.76,507.9,430.08z"/>
	<path stroke="#000000" stroke-width="0.0938" d="M519.58,1136.1801c11.83,2.9199,23.58,6.1399,35.39,9.1599
		c8.47,1.54,17.07,2.1901,25.6,3.39c24.47,3.35,49.15,5.38,73.41,10.14c19.68,3.41,39.33,6.95,59.02,10.3101
		c12.82,1.4099,25.68,2.47,38.54,3.5599c47.45,4.62,94.97,8.47,142.4901,12.3101c51.08,3.6899,102.0099,9.13,152.98,14.12
		c32.65,0.13,65.3099,0.0199,97.97,0.0599c10.66,0.0601,21.34-0.26,31.99,0.67c38.66,2.74,77.3201,5.4199,115.98,8.15
		c9.64,0.9099,19.3301,0.6399,29,0.6899c154.0801-0.02,308.17-0.03,462.26-0.03c-1.6899,6.03-3.25,12.11-5.4199,18
		c-107.27,0.1801-214.54,0.02-321.8,0.0801c-109,0.1699-217.99-0.0601-327,0.01c-203.34-0.15-406.69,0.1399-610.04-0.0801
		c-0.82-19.47-0.04-38.98-0.38-58.46C519.56,1157.5601,519.57,1146.87,519.58,1136.1801z"/>
	<path fill="#BD2525" stroke="#BD2525" stroke-width="0.0938" d="M1150.04,242.04c13.47-2.86,27.96-2.1,40.64,3.5
		c12.6599,5.29,22.3099,15.49,30.84,25.92c13.14,17.04,22.28,36.97,27.79,57.71c5.5099,19.86,8.1599,40.4,9.5499,60.92
		c0.83,5.97,0.26,12.08,1.6,18c-0.08-1.26-0.14-2.5-0.1899-3.74c15.46-0.74,31.25,4.14,43.15,14.15
		c13.2799,11.67,23.99,26.18,31.76,42.04c8.13,17.11,13.9099,35.41,16.71,54.15c-14.85-0.02-29.7001,0.1-44.55-0.01l-0.36,0.03
		c-19.51-18.34-38.49-37.25-57.8199-55.78c-7.53-7.11-14.63-14.69-22.4501-21.47c-53.2899-0.12-106.58,0.06-159.87-0.09
		c-1.75-37.04-5.1899-74.26-1.1899-111.28c0.6699-9.4,3.23-18.51,3.99-27.88c0.16,1.59,0.3199,3.19,0.5,4.79
		c7.49-15.83,20.53-28.14,34.24-38.64C1117.97,254.13,1133.15,245.31,1150.04,242.04z"/>
	<path fill="#BD2525" stroke="#BD2525" stroke-width="0.0938" d="M1739.09,1181.23c-0.2799-0.01-0.86-0.01-1.14-0.01
		c-0.1899-0.88-0.46-1.6899-0.8099-2.4399c0.77-1.79,1.35-3.67,1.86-5.55C1739.95,1175.83,1740.4301,1178.64,1739.09,1181.23z
		 M1707.29,1169.15c0.1699,2.1899,0.22,4.4,0.0299,6.62c-0.49,0.45-0.95,0.9299-1.37,1.4399
		c-0.3999-0.5299-0.7799-1.0399-1.12-1.5299c-0.08-1.27-0.13-2.52-0.13-3.7401C1706.13,1171.62,1706.66,1170.3101,1707.29,1169.15z
		 M1694.89,1167.46c0.4,0.5801,0.8199,1.17,1.27,1.78c-0.03,1.1901-0.04,2.4-0.02,3.63c-0.78,0.92-1.53,1.87-2.26,2.84
		C1693.3101,1172.88,1693.38,1169.98,1694.89,1167.46z M1683.54,1167.52c-0.04,1.61-0.0601,3.24-0.0701,4.89
		c-0.5399,0.08-1.63,0.26-2.1699,0.34c0.0499-1.76,0.12-3.51,0.22-5.24C1682.02,1167.51,1683.04,1167.51,1683.54,1167.52z
		 M1670.13,1171.45c-0.84,0-1.65,0.01-2.4401,0.04c0.1801-2.26-0.5399-4.88,1-6.78C1672.4,1164.66,1670.79,1169.3,1670.13,1171.45z
		 M1657.0699,1162.98c0.51,1.9501,0.29,3.99,0.3101,6.01c-1.01,0.49-1.95,1.04-2.87,1.63c-0.02-2.16-0.23-4.35,0.25-6.45
		C1655.02,1163.2,1656.08,1162.22,1657.0699,1162.98z M1642.7,1162.24c-0.09,1.78-0.1499,3.58-0.1899,5.38
		c-0.96-0.04-1.89-0.0699-2.8-0.08c0.02-1.67,0.04-3.3401,0.0901-4.99C1640.74,1162.4301,1641.71,1162.33,1642.7,1162.24z
		 M1627.14,1158.1c1.01,2.4401,1.53,5.0601,0.4299,7.59c-0.5699-0.0199-1.7-0.0499-2.2599-0.0699
		C1625.17,1162.95,1625.61,1160.3199,1627.14,1158.1z M1612.41,1157.65c0.2899,2.23,0.0399,4.48-0.12,6.73
		c-0.9-0.03-1.78-0.04-2.64-0.02C1609.8199,1162.05,1608.36,1156.27,1612.41,1157.65z M1596.38,1154.63
		c0.1801,2.64,0.24,5.36-0.9301,7.8099c-0.47,0-1.4199,0.01-1.8899,0.01c-0.15-2.59-0.0901-5.1599,0.1899-7.71
		C1594.61,1154.7,1595.49,1154.66,1596.38,1154.63z M1579.55,1152.5699c0.01,1.9601,0.0299,3.9301,0.0699,5.92
		c-1.1801,0.11-2.33,0.24-3.48,0.37c0.13-2.1,0.3099-4.1899,0.51-6.27C1577.6,1152.5699,1578.5699,1152.5601,1579.55,1152.5699z
		 M1561.64,1150.3101c0,2.36-0.03,4.74-0.12,7.12c-1.05,0.0399-2.0801,0.09-3.1,0.1499c-0.0701-2.38-0.0701-4.75,0-7.1
		C1559.48,1150.41,1560.55,1150.35,1561.64,1150.3101z M1543.66,1148.48c-0.12,2.11-0.5,4.21-1.27,6.2001
		c-1.04-0.04-2.05-0.0801-3.05-0.1001c0.0801-1.8999,0.11-3.7999,0.4701-5.6499C1540.74,1147.8101,1542.39,1148.66,1543.66,1148.48z
		 M1523.67,1145.36c-0.02,2.03,0.1599,4.1-0.2001,6.13c-0.49,1.15-2.03,0.9401-2.99,1.4c-1.13-2.4501-0.6699-5.04,0.0701-7.5
		C1521.58,1145.37,1522.61,1145.36,1523.67,1145.36z M1500.6801,1142.25c5.0699-0.0601,2.6699,6.65,0.3199,8.8
		C1498.7,1148.85,1498.72,1144.62,1500.6801,1142.25z M1481.5601,1139.3101c1.0699,3.0599,1.0199,8.34-3.2101,8.6
		c-1.16-2.75-0.9-5.7201,0.17-8.4301C1479.52,1139.41,1480.53,1139.35,1481.5601,1139.3101z M1458.87,1135.78
		c0.4401,0.45,0.9,0.9199,1.38,1.4c0.27,2.8899-0.66,5.6-2.13,8.0599c-0.73-0.04-1.4399-0.05-2.11-0.04
		c-0.6801-1.1899-1.38-2.38-2.03-3.5299c0.6-2.11,1.41-4.14,2.7001-5.92C1457.23,1135.76,1458.3199,1135.77,1458.87,1135.78z
		 M1436.3,1134.9c0.33,2.53-0.05,7.08-3.55,6.87c-2.0699-1.92-1.51-5.3301-0.58-7.65C1432.91,1132.45,1436.17,1132.77,1436.3,1134.9
		z M1408.72,1129.3101c4.25-0.64,2.65,4.4299,2.98,7.0199c-1.0299,1.24-2.25,2.26-3.8899,2.51
		C1405.86,1135.84,1406,1131.8,1408.72,1129.3101z M1382.9,1125.66c1.5699-0.89,2.8199,1,3.1799,2.2999
		c0.8,3.05-0.71,6.13-3.0199,8.0901c-0.89-0.99-1.77-1.9501-2.64-2.9C1380.23,1130.41,1380.97,1127.67,1382.9,1125.66z
		 M1358.5699,1122.27c0.0701,2.34,0.15,4.6899,0.2401,7.0499c-0.91,1.52-2.2001,2.9801-4.1801,2.17
		C1352.37,1128.21,1353.29,1121.09,1358.5699,1122.27z M1330.51,1118.34c0.16,3.1801,0.53,6.53-0.96,9.49
		c-1.01-0.1-3.02-0.2899-4.02-0.39c0.1799-2.96-1.4-7.59,2.2999-8.9099C1328.5,1118.48,1329.84,1118.39,1330.51,1118.34z
		 M1300.85,1115.3199c1.6,2.4,0.5601,5.42-0.4299,7.87c-0.64,0.41-1.9301,1.2301-2.5801,1.64c-3.0699-1.98-2.84-6.23-1.33-9.11
		C1297.02,1113.8199,1300.0699,1113.6801,1300.85,1115.3199z M1750.2,1114.49c-0.0399,1.54-0.0499,3.1-0.0299,4.67
		c-0.9501,0.09-1.87,0.2-2.76,0.33c0.09-1.63,0.22-3.25,0.34-4.86C1748.54,1114.5699,1749.36,1114.52,1750.2,1114.49z
		 M1269.5699,1110.05c1.54,3.1,1.25,6.6899-0.1599,9.7899c-1.66,0.1-3.23-0.13-4.7001-0.6799c-0.64-2.0901-0.3199-4.3-0.4199-6.4301
		C1265.59,1111.04,1267.3199,1109.85,1269.5699,1110.05z M1740.02,1113.04c1.02,2.39-1.98,3.1499-3.28,4.46
		c0.04-1.09,0.12-2.17,0.23-3.24c1.15-1.49,1.73-3.25,2-5.09C1739.3,1110.45,1739.74,1111.72,1740.02,1113.04z M1237.71,1106.1899
		c0,3,0.4701,6.14-0.48,9.0601c-1.59,0.41-3.2,0.55-4.83,0.42c-0.23-3.0801-0.2101-6.16,0.09-9.2101
		C1234.21,1106.34,1235.96,1106.25,1237.71,1106.1899z M1729.3,1106.24c0.24,2.46,0.6699,5.09-1.12,7.12
		c-0.41,0.03-1.2301,0.09-1.63,0.12c0.0699-1.08,0.1799-2.14,0.3099-3.1899C1727.87,1109.0699,1728.62,1107.67,1729.3,1106.24z
		 M1719.5601,1104.47c-0.1901,1.0701-0.3501,2.15-0.4901,3.25c-0.8999,1.3-1.6699,2.6901-2.4099,4.0901
		c-0.2201-2.3701-0.24-4.7401,0.01-7.0901C1717.6,1104.62,1718.5699,1104.54,1719.5601,1104.47z M1203.4399,1101.25
		c1.8101,3.39,1.4301,7.58-1.09,10.51c-0.9199-0.04-2.77-0.12-3.6899-0.16c-1.38-2.76-1.73-6.13-0.1901-8.89
		C1199.22,1100.63,1201.78,1101.5601,1203.4399,1101.25z M1707.15,1099.36c0.84,2.58,1.26,5.34-0.03,7.88
		c-0.8199,0-1.61,0.01-2.36,0.05c-0.02-0.4601-0.05-1.38-0.0601-1.8401l-1.21,0.42
		C1704.98,1103.86,1706.0601,1101.6,1707.15,1099.36z M1696.27,1097.6c-0.0701,1.8301-0.11,3.6801-0.14,5.54
		c-1.2,0.1-2.39,0.2-3.53,0.34c0.0601-1.13,0.13-2.24,0.27-3.33c0.75-0.8301,1.4-1.74,1.96-2.7101
		C1695.1899,1097.48,1695.91,1097.5601,1696.27,1097.6z M1167.6899,1096.09c1.91,3.98,1.7101,9.64-2.7,11.85
		c-4.63-2.36-3.75-7.7899-1.42-11.5199C1164.6,1096.34,1166.66,1096.1801,1167.6899,1096.09z M1683.38,1092.3
		c0.1,2.0199,0.13,4.0599,0.1,6.1c-0.98,0.7-1.9,1.4399-2.84,2.1699C1679.97,1097.38,1681.08,1094.52,1683.38,1092.3z
		 M1131.23,1091.63c1.3,2.8099,0.9301,5.84,0.21,8.76c-1.36,0.99-2.6799,2.49-4.5499,2.03c-0.91-0.67-1.78-1.36-2.61-2.0701
		c-0.15-3.25-0.12-6.6699,2.2999-9.14C1128.11,1091.34,1129.66,1091.48,1131.23,1091.63z M1671.11,1088.45
		c0.21,1.29-0.41,3.0901,1.25,3.7001c-0.4399,0.11-1.33,0.3099-1.77,0.41c-0.5699,1.6699-1.09,3.34-1.59,5.0399
		c-0.1899-0.63-0.36-1.24-0.5-1.83c-0.5601-0.47-1.09-0.92-1.6-1.36C1667.3199,1091.8,1668.89,1089.78,1671.11,1088.45z
		 M1088.95,1085.0601c1.7201,1.0099,3.29,2.2699,4.6901,3.72c0.13,2.85-0.72,5.53-2.4,7.83c-1.58,0.05-3.15,0.12-4.71,0.22
		C1084.21,1092.98,1084.8,1087.41,1088.95,1085.0601z M1657.3199,1084.74c0.4701,2.87,0.1801,6.25-3,7.35
		c-0.0399-2.45,0.15-4.89,0.4401-7.3099C1655.6,1084.77,1656.45,1084.76,1657.3199,1084.74z M1643.72,1081.47
		c-0.27,1.99-0.9,3.91-1.59,5.8c-0.5,0.15-1.5,0.4299-1.99,0.58c-0.76-2.14,0.03-4.2899,0.49-6.37
		C1641.64,1081.47,1642.67,1081.46,1643.72,1081.47z M1050.45,1080.25c2.26,2.73,3.1001,6.9399,0.77,9.9
		c-1.62,2.8099-6.5599,1.99-7.09-1.28c-1.54-3.1899,0.4399-6.26,2.46-8.61C1047.5601,1080.26,1049.49,1080.25,1050.45,1080.25z
		 M1629.37,1077.0699c-0.72,2.0801-1.41,4.1801-2.1801,6.25c-0.8999,0.01-1.7799,0.03-2.6299,0.0701
		c-0.3101-2.87,0.6699-5.47,2.48-7.65C1627.79,1076.17,1628.5699,1076.62,1629.37,1077.0699z M1003.66,1074.36
		c0.95-0.04,2.86-0.12,3.82-0.16c3.29,2.99,3.38,9.3101-0.47,11.9c-1.98,1.1901-4.62,0.03-5.51-1.96
		C1001.07,1080.74,1000.78,1076.78,1003.66,1074.36z M1613.33,1071.6899c-0.01,0.4701-0.0199,1.41-0.0299,1.88l1.2-0.3899
		c-1.48,1.84-2.48,3.98-3.37,6.1599c-0.91-0.3099-1.79-0.58-2.66-0.8199c-0.09-1.51-0.0699-2.99-0.14-4.47
		c0.16,1.26,0.4801,2.49,0.9701,3.71c0.2799-2.09,0.51-4.2,1.34-6.15C1611.51,1071.62,1612.41,1071.65,1613.33,1071.6899z
		 M958.9,1068.4c1.45,0.02,2.9,0.0599,4.37,0.15c1.63,2.6,3.39,5.8199,1.4,8.7799c-0.85,3.3301-5.6,4.63-7.63,1.66
		c-2.12-2.27-1.22-5.45-0.44-8.0699C957.35,1070.0699,958.12,1069.23,958.9,1068.4z M1596.62,1066.42
		c0.08,2.4199-0.11,4.87-1.29,7.0399c-0.49,0.04-1.48,0.12-1.98,0.16c-0.0499-2.4399-0.0699-4.9399,1.16-7.12
		C1595.03,1066.48,1596.09,1066.4399,1596.62,1066.42z M917.55,1063.61c2.21,3.51,1.13,8.6-2.36,10.9301
		c-0.88,0.01-2.63,0.02-3.51,0.0299c-0.79-0.7899-1.58-1.5699-2.36-2.3199c-0.11-3.51-0.64-7.49,2.25-10.09
		C913.54,1062.54,916.34,1061.45,917.55,1063.61z M1579.63,1061.1c0,1.76-0.01,3.54-0.03,5.3201
		c-0.97,0.8999-1.9199,1.8099-2.86,2.73C1574.8199,1066.4,1575.8199,1061.4301,1579.63,1061.1z M1562.34,1056.79
		c0.2001,2.77-0.85,6.1599-4.11,6.23C1556.78,1060.3199,1558.62,1054.37,1562.34,1056.79z M868.85,1057.4
		c2.2,3.73,0.46,11.0599-4.79,10.39c-3.89,0.5-5.8-4.25-5.29-7.49c1.09-1.51,2.14-3.0601,3.17-4.6101
		C864.28,1055.73,867.89,1054.3199,868.85,1057.4z M1543.8101,1050.45c0.0499,2.62-0.78,5.0601-2.26,7.2001
		c-0.55-0.03-1.65-0.0801-2.1901-0.11c-0.1-2.48,0.08-4.9701,1.0601-7.27C1541.53,1050.33,1542.66,1050.39,1543.8101,1050.45z
		 M815.72,1048.53c4.73,3.1,3.48,12.25-2.5099,13.08c-2.05,0.47-3.45-1.0599-4.82-2.23c-0.26-2.13-1.03-4.27-0.66-6.41
		c0.75-1.6699,1.91-3.09,2.98-4.5399C812.37,1048.4,814.06,1048.15,815.72,1048.53z M1750.25,1044.55
		c-0.08,1.0699-0.14,2.1599-0.17,3.26c-1.0699,0.8799-2.09,1.7799-3.09,2.73c-0.27-1.02-0.66-1.9401-1.1899-2.78
		c0.36-0.0601,1.1-0.1801,1.46-0.23c0.4399-1.0601,0.9-2.11,1.38-3.14C1749.05,1044.4301,1749.85,1044.51,1750.25,1044.55z
		 M1523.2,1043.08c1.9501,2.88,0.8501,9.6901-3.7699,8.4501C1519.33,1048.25,1519.59,1044.38,1523.2,1043.08z M756.77,1041.3199
		c2.7,0.02,6.4-0.5699,7.59,2.6001c0.58,3.39,0.96,8.0299-2.71,9.86c-2.47,1.83-5.38,0.25-7.35-1.48
		c-0.1-2.8501-0.12-5.6901,0.01-8.52C755.13,1042.95,755.95,1042.13,756.77,1041.3199z M1740.5699,1040.4
		c-0.47,1.64-0.9299,3.28-1.35,4.95c-0.9299-0.02-1.84-0.02-2.72,0c0.49-1.6,0.91-3.23,1.38-4.83
		C1738.75,1040.47,1739.65,1040.4301,1740.5699,1040.4z M1503.47,1037.5601c0.74,3.1799,0.01,7.5699-3.74,8.3899
		C1497.39,1042.99,1499.28,1036.78,1503.47,1037.5601z M1729.04,1034.36c0.77,1.46,1.14,3.05,1.3099,4.71
		c-1.1,0.5701-2.15,1.1901-3.21,1.77C1727.36,1038.5601,1727.74,1036.29,1729.04,1034.36z M1481.14,1030
		c1.89,2.59,1.08,5.65,0.14,8.4301c-1.3301,0.0299-2.65,0.09-3.9501,0.1899C1477.08,1035.1801,1477.75,1031.64,1481.14,1030z
		 M1719.39,1030.1899c0.1799,2.76,0.27,6.9301-3.67,6.5c0.02-1.3099,0.0601-2.61,0.12-3.8799c0.8101-0.4301,1.63-0.8601,2.4701-1.28
		C1718.58,1031.2,1719.12,1030.52,1719.39,1030.1899z M1708.5699,1026.3101c-0.3999,2.1299-1.3199,4.1-2.4199,5.96
		c-0.86-0.0601-1.7001-0.11-2.51-0.14C1704.39,1029.58,1704.99,1025.72,1708.5699,1026.3101z M1459.8101,1024.14
		c-0.0901,2.03-0.1901,4.0699-0.3,6.12c-0.76,0.74-1.51,1.49-2.24,2.26c-0.41,0.01-1.25,0.03-1.67,0.04
		c-1.77-2.51-0.6699-5.3501,0.23-7.9401C1457.14,1024.4399,1458.45,1024.27,1459.8101,1024.14z M1695.75,1021.22
		c-0.12,1.69-0.21,3.41-0.3,5.13c-0.5399,0.0801-1.63,0.26-2.1799,0.34c0.11-1.6599,0.25-3.3099,0.4-4.95
		C1694.1899,1021.61,1695.23,1021.35,1695.75,1021.22z M1436.65,1017.45c0.3099,3.43-0.79,6.71-3.76,8.67
		c-2.58-2.35-1.46-5.99-0.42-8.78C1433.85,1017.36,1435.24,1017.39,1436.65,1017.45z M1683.02,1014.61
		c0.4,0.57,0.84,1.15,1.2999,1.74c0.28,2.73-1.5,5.83-4.6,5.2401c0.0701-0.58,0.2001-1.75,0.26-2.33
		C1681.0699,1017.76,1682.12,1016.23,1683.02,1014.61z M1671.6899,1010.58c-0.5399,1.58-1.0299,3.2-1.5099,4.82
		c-1.02,0.1-2.02,0.21-3,0.31c0.4399-1.7401,0.95-3.47,1.5399-5.16C1669.6899,1010.54,1670.6801,1010.55,1671.6899,1010.58z
		 M1411.64,1009.15c0.2,2.9,0.33,5.95-1.29,8.54c-0.98-0.05-2.9399-0.16-3.9299-0.22C1405.78,1013.9,1406.8,1008.35,1411.64,1009.15
		z M1657.38,1003.28c0.64,3.1899-0.03,6.33-2.55,8.52c-1.6499-1.47-1.0399-3.79-1.09-5.7
		C1654.9301,1005.15,1656.15,1004.21,1657.38,1003.28z M1385.65,1001.19c1.72,3.35,0.5699,7.44-2.5601,9.48
		c-0.6899-0.35-2.08-1.06-2.77-1.42c-0.0699-2.65,0.3601-5.25,1.5701-7.62C1382.83,1001.52,1384.71,1001.3,1385.65,1001.19z
		 M1643.51,997.54c0.4399,2.76-0.38,5.32-2.2,7.42c-3.52-1.19-0.6101-5.16,0.5599-7.19C1642.28,997.71,1643.1,997.6,1643.51,997.54z
		 M1357,991.91c4.55,2.4,2.39,8.22-0.79,10.81c-0.6799-0.3799-2.0399-1.15-2.72-1.53C1352.8199,997.52,1353.87,994.07,1357,991.91z
		 M1628.87,992.31c-0.33,1.81-0.75,3.6-1.25,5.37c-1.1899-0.03-2.36-0.04-3.52-0.04c0.53-1.83,1.22-3.61,2.11-5.3
		C1626.88,992.34,1628.21,992.32,1628.87,992.31z M1613.52,985.5c0.46,3.21-1.46,7.2-5.22,6.16
		C1608.86,989.01,1609.79,984.48,1613.52,985.5z M1330.72,984.23c0.02,2.36,0,4.74-0.01,7.12c-1.5,1.04-3.1,3.23-5.1499,2.04
		c-0.6901-3.03-0.1801-6.12,1.0199-8.92C1327.61,984.41,1329.6801,984.29,1330.72,984.23z M1597.76,979.62
		c-0.85,1.62-1.62,3.29-2.38,4.95c-1.01-0.01-2,0-2.97,0.03c0.0399-0.92,0.09-1.83,0.15-2.73c0.7-1.23,1.4099-2.47,2.1299-3.69
		C1595.8,978.4,1596.89,978.78,1597.76,979.62z M1301.66,977.01c0.6599,3.17-0.89,8.39-4.9401,7.58c-2.35-2.21-1.85-7.06,0.6-9.1201
		C1298.6801,973.78,1301.9399,974.56,1301.66,977.01z M1579.3101,969.93c0.6399,2.62,0.6,5.4-0.8101,7.77
		c-1.1-0.08-2.17-0.15-3.23-0.22C1575.34,974.4,1576.55,971.52,1579.3101,969.93z M1267.9399,965.39
		c2.8201-0.87,2.9801,2.72,2.77,4.57c0.4501,2.71-1.88,4.33-3.59,5.95c-0.72-0.36-2.16-1.09-2.88-1.45
		C1264.1,971.24,1263.89,966.08,1267.9399,965.39z M1561.22,962.11c2.39,3.13,0.5801,6.9-2.28,8.94
		C1555.86,968.11,1558.5601,964.13,1561.22,962.11z M1543.72,955.13c-0.0699,1.67-0.12,3.36-0.15,5.05
		c-1.3899,1.46-3.8099,3.78-5.21,0.99C1539.14,958.47,1540.01,954.51,1543.72,955.13z M1238.42,955.63
		c0.45,3.48,0.34,7.13-2.17,9.84c-1.33,0.05-2.65,0.1201-3.9399,0.21c-1.25-2.84-1.1801-6.23,0.49-8.88
		C1233.86,954.64,1236.53,955.67,1238.42,955.63z M1523.27,945.8c2.65,3.02,0.45,8.96-3.98,8.07
		C1518.86,950.53,1520.23,947.38,1523.27,945.8z M1204.51,945.38c0.04,2.29,0.08,4.58,0.13,6.88c-1.6,1.39-3.21,4.53-5.71,2.95
		c-2.52-2-1.91-6.2-0.3101-8.6C1199.78,944.4,1202.53,945.59,1204.51,945.38z M1502.03,937.31c2.7999,0.66,1.2899,3.98,1.5399,5.99
		c-1.3999,1.5-3,2.74-5.1699,2.36C1498.26,942.54,1498.91,938.81,1502.03,937.31z M1168.73,934.36
		c-0.1799,3.31,1.3101,8.32-2.6,9.98c-0.87,0.0699-2.6,0.21-3.47,0.28c-2.0901-3.31-1.37-7.47,1.0399-10.39
		C1165.36,934.27,1167.04,934.3,1168.73,934.36z M1481.14,928.07c2.87,1.62,0.73,5.17,0.25,7.55c-1.4401,0.01-2.88,0.02-4.28,0.05
		C1477.1,932.71,1477.86,929.03,1481.14,928.07z M1131.35,922.45c1.34,2.84,1.13,5.92,0.13,8.83c-1.76,1.6-4.0499,3.34-6.41,1.72
		c-1.3899-2.13-0.6399-4.87-0.86-7.25C1125.8199,923.25,1128.23,921.54,1131.35,922.45z M1459.21,918.02
		c1.9601,2.85,0.77,5.97-0.89,8.61c-1.34-0.04-2.6899-0.09-4-0.12C1453.72,922.77,1455.67,919.36,1459.21,918.02z M1088.84,910.32
		c2.12-0.65,3.54,1.1,4.9501,2.36c-0.0701,3.04-0.8301,6.11-2.7201,8.57c-1.7599,0.69-3.6799,0.2-5.48,0.11
		c-0.36-2.83-0.4-5.68-0.12-8.5C1086.5601,911.98,1087.65,911.09,1088.84,910.32z M1435.1801,907.88c3.1,3.1,1,7.88-2.12,10.07
		c-0.9801-0.92-1.9401-1.83-2.89-2.73C1431.13,912.36,1432.26,909.3,1435.1801,907.88z M1412.46,898.53
		c-0.0499,2.29-0.46,4.55-1.11,6.7599c-1.53,0.91-3.24,1.43-4.99,1.55c-0.51-3.15,0.12-6.25,2.27-8.67
		C1409.59,898.26,1411.5,898.44,1412.46,898.53z M1051.52,898.21c1.52,2.72,1.77,6.5099-0.11,9.12c-1.53,2.37-4.73,1.14-7.02,1.27
		c-0.14-2.64-0.1801-5.27-0.14-7.89c0.8101-0.84,1.62-1.67,2.45-2.4901C1048.29,898.22,1049.9,898.21,1051.52,898.21z
		 M1386.5699,887.55c0.2201,2.96-0.3199,5.86-2.2999,8.16c-1-0.02-2.99-0.07-3.99-0.09c-0.36-3.06,0.25-6.01,2.27-8.39
		C1383.87,887.31,1385.22,887.42,1386.5699,887.55z M1009.98,887.1c1.43,3.21-0.41,6.44-2.52,8.81c-2.01-0.12-4.02-0.21-6.02-0.31
		c0.01-3.4-1.39-7.88,1.99-10.16C1005.35,883.24,1009.19,884.37,1009.98,887.1z M1359.49,875.41c1.0701,3.56-0.83,10.64-5.62,8.75
		C1351.79,880.34,1354.45,874.07,1359.49,875.41z M965.75,873.63c0.65,4.14-1.71,10.27-6.87,9.04c-4.29-0.41-2.22-6.12-2.57-8.99
		c0.79-0.8,1.59-1.6,2.39-2.39C961.41,870.96,964.16,871.07,965.75,873.63z M1331.26,863.77c1.28,3.18-0.25,7.11-3.11,8.88
		c-3.12,0.74-3.9601-2.33-3.9-4.72C1325.5699,865.3,1327.83,861.92,1331.26,863.77z M911.79,856.36c1.54-0.03,3.1-0.06,4.66-0.09
		c2.9,3,3.37,8.65-0.21,11.31c-1.5,1.36-3.66,0.95-5.48,1.14c-0.82-1.22-1.61-2.41-2.43-3.59
		C907.8,861.69,909.73,858.86,911.79,856.36z M1301.34,850.32c0.3401,1.25,0.7201,2.5,1.13,3.75c-0.75,3.06-2.6599,5.61-5.64,6.79
		c-2.3199-2.09-1.38-5.33-1.37-8.03C1297.0699,851.29,1298.9399,849.91,1301.34,850.32z M864.98,840.65
		c2.31-0.4901,3.77,1.71,4.7,3.47c1.28,2.26,0.07,4.8-0.38,7.12c-0.73,0.67-1.45,1.34-2.16,2.02c-1.05,0.37-2.09,0.75-3.12,1.13
		c-1.12-0.38-2.23-0.74-3.33-1.08c-1.87-2.61-1.31-5.86-1.14-8.84C861.24,843.1,862.41,840.32,864.98,840.65z M1271.53,839.91
		c0.65,3.13-1.65,5.4301-3.67,7.41c-1.2999,0.06-2.59,0.12-3.86,0.2c1.36-0.39,2.75-0.75,4.14-1.12c-0.91,0.09-2.74,0.28-3.65,0.37
		c-1.64-3.34-0.6-7.01,1.99-9.51C1268.39,837.39,1271.97,836.92,1271.53,839.91z M818.47,827.73c0.04,3.05,0.94,6.72-1.73,8.99
		c-1.47,2.23-4.5,2.14-6.76,1.4301c-3.6-2.85-3.54-9.22,0.36-11.78C812.88,824.39,816.49,825.44,818.47,827.73z M1237.3,823.32
		c2.85,1.96,1.13,6.27-0.03,8.89c-1.46,0.44-2.8301,1.48-4.4,1.28C1229.22,830.3,1231.83,822.17,1237.3,823.32z M1203.3,808.37
		c2.5699,1.67,0.98,5.25,1.26,7.79c-0.8201,0.82-1.6101,1.67-2.39,2.52c-1.54-0.34-4.3201,0.75-4.77-1.42
		c-0.1901-1.84-0.09-3.69-0.05-5.52C1199.03,810.11,1200.5,807.45,1203.3,808.37z M758.28,808.01c2.65-0.45,4.74,1.81,6.89,3.02
		c0.16,2.71,0.93,5.8199-0.98,8.14c-1.62,3.53-6.26,4.09-9.31,2.14c-0.66-1.27-1.37-2.48-2.11-3.66
		C751.85,813.44,755.37,810.37,758.28,808.01z M1166.05,791.8c1.48,1.03,3.59,1.96,3.5699,4.1c0.8,2.9-1.15,5.28-2.45,7.64
		c-1.89,0.08-3.76,0.06-5.61-0.07c-0.0901-2.27-0.4301-4.59,0.0699-6.83C1162.6899,794.71,1164.7,793.53,1166.05,791.8z
		 M1126.7,777.38c1.55-0.01,3.1001-0.03,4.67-0.06c2.5699,4.01,0.99,9.22-3.21,11.33c-1.1901-0.45-2.37-0.88-3.54-1.3
		c-0.39-1.13-0.77-2.24-1.15-3.34C1124.01,781.56,1124.75,779.1,1126.7,777.38z M1087.75,760.28c2.38-0.28,4.67,0.28,6.0601,2.39
		c0.7999,4.41-2.14,9.51-7.03,9.14c-0.8201-0.91-1.63-1.81-2.4301-2.69C1084.12,765.77,1085.53,762.69,1087.75,760.28z
		 M1050.21,742.11c2.42,1.99,4.3301,5.4,2.38,8.4c-1.0499,3.57-5.0699,4.93-8.2,3.08c-0.9-2.57-1.74-5.77,0.13-8.11
		C1045.8199,743.54,1048.04,742.67,1050.21,742.11z M1004.98,724.41c3.32-1.09,6.05,2.48,5.56,5.55c0.2,2.46-1.7599,4.17-3.14,5.92
		c-2.26-0.37-5.58,0.76-6.65-1.94C999.25,730.45,1001.38,725.55,1004.98,724.41z M965.59,706.67c0.06,2.26,0.09,4.53,0.0699,6.8
		c-1.91,1.8701-3.75,4.89-6.8799,4.1201c-4.89-1.98-4.5-9.85,0.1899-11.82C961.17,704.73,963.57,705.59,965.59,706.67z
		 M917.4,685.41c0.66,1.15,1.34,2.3,2.03,3.47c0.02,0.8,0.05,2.4,0.07,3.2c-1.19,2.61-3.15,5.87-6.49,5.55
		c-1.91,0.28-3.17-1.35-4.56-2.31c-0.03-2.19-0.57-4.51,0.25-6.6c0.83-1.21,1.87-2.25,2.86-3.33
		C913.5,685.39,915.45,685.39,917.4,685.41z M869.23,664.74c1.62,3.49,2.31,8.64-1.69,10.8c-1.92,2.38-5,1.96-7.23,0.29
		c-1.86-1.87-2.24-4.78-1.46-7.22c1.05-1.87,2.65-3.34,4.06-4.93C865.07,663.56,867.23,663.86,869.23,664.74z M816.09,641.87
		c1.3199,1.17,2.45,2.6,3.2,4.22c1.11,3.94-1.96,7.7599-5.46,9.17c-3.26,1.08-5.77-1.95-7.04-4.52c-0.96-3.55,1.71-6.65,4.21-8.78
		C812.61,641.49,814.43,641.51,816.09,641.87z M765.62,622.72c-0.03,1.5-0.05,3.01-0.04,4.52c-1.14,1.39-2.23,2.83-3.54,4.06
		c-1.96,0.86-4.19,0.32-6.25,0.4c-0.79-0.88-1.58-1.75-2.36-2.62c-0.27-3.31-0.63-7.28,2.62-9.31
		C759.53,618.4,763.93,619.02,765.62,622.72z M519.65,767.96c-0.09,16.13,0.16,32.2599-0.13,48.39
		c0.16,106.61,0.02,213.22,0.06,319.8301c11.83,2.9199,23.58,6.1399,35.39,9.1599c8.47,1.54,17.07,2.1901,25.6,3.39
		c24.47,3.35,49.15,5.38,73.41,10.14c19.68,3.41,39.33,6.95,59.02,10.3101c12.82,1.4099,25.68,2.47,38.54,3.5599
		c47.45,4.62,94.97,8.47,142.4901,12.3101c51.08,3.6899,102.0099,9.13,152.98,14.12c32.65,0.13,65.3099,0.0199,97.97,0.0599
		c10.66,0.0601,21.34-0.26,31.99,0.67c38.66,2.74,77.3201,5.4199,115.98,8.15c9.64,0.9099,19.3301,0.6399,29,0.6899
		c154.0801-0.02,308.17-0.03,462.26-0.03c4.15-13.58,8.1901-27.1899,11.53-40.99c2.14-9.2899,4.36-18.5599,6.64-27.8099
		c0.79-3.28,1.77-6.54,1.88-9.92c0.1-38.12-0.14-76.24,0.11-114.35c-7.6899-3.19-15.61-5.76-23.4399-8.57
		c-21.2201-7.48-42.3501-15.22-63.53-22.8c-15.86-5.31-30.79-12.93-46.15-19.49c-18.71-8.29-37.41-16.6201-56.11-24.9301
		c-19.38-8.36-38.28-17.77-57.42-26.65c-17.21-8.15-34.4199-16.27-51.63-24.41c-7.7999-3.72-15.7799-7.12-23.12-11.71
		c-69.15-40.2-138.3099-80.39-207.36-120.76c-34.37-21.24-68.66-42.61-102.98-63.91c-15.55-9.46-30.7-19.62-46.6901-28.34
		c-43.72-24.61-87.47-49.17-131.1899-73.78c-6.67-3.67-13.14-7.69-20.04-10.92c-25.04-11.92-50.06-23.92-75.1-35.85
		c-23.43-10.95-46.45-22.76-70.27-32.82c-32.07-13.94-64.1201-27.92-96.17-41.87c-3.77-1.63-7.46-3.46-11.41-4.56
		c-23.73-6.39-47.43-12.84-71.15-19.25c-7.89-1.94-15.6-4.7-23.63-6.02c-25.65-2.88-51.3-5.8-76.94-8.74
		c-10.05-1.51-20.22-0.45-30.32-0.9C519.54,542.22,519.71,655.09,519.65,767.96z"/>
	<path fill="#F9F1CE" stroke="#F9F1CE" stroke-width="0.0938" d="M513.17,321.24c6.18-3,12.85-5.66,19.85-5.4
		c6.43,0.21,13.21-0.78,19.28,1.91c11.41,4.95,24.07,5.36,35.81,9.2c8.51,2.79,16.87,6.01,25.51,8.42
		c21.91,6.47,43.26,14.6,64.79,22.19c6.76,2.55,13.7,4.64,20.27,7.68c25.88,12.07,52.32,22.92,78.29,34.8
		c16.9,8.3,33.9,16.39,50.38,25.51c31.13,16.31,61.86,33.37,92.65,50.32c22.98,12.99,45.75,26.36,68.43,39.86
		c19.57,11.64,39.2,23.18,58.45,35.35c22.22,14.01,45.13,26.87,67.7,40.29c8.8101,5.53,17.4801,11.3,26.39,16.67
		c0.28,7.37-0.8099,14.89,1.39,22.08c2.4301,8.88,3.14,18.46,8.04,26.48c4.83,8.76,10.64,17.25,18.5599,23.51
		c6.55,6.34,14.5701,10.8,22.0601,15.92c16.6799,10.75,33.66,21.02,50.45,31.6c11.4301,7.29,22.47,15.38,34.92,20.88
		c3.4299,1.02,7.08,0.6,10.62,0.7c7.37,0.57,13.71-4.83,17.29-10.81c3.6499-4.69,5.0399-10.53,6.96-16.03
		c1.0699-3,1.36-6.19,1.45-9.34c5.99,3.5099,11.5901,7.65,17.5901,11.16c0.25-29.46,0.1-58.92,0.0699-88.38
		c1.39,0.01,2.95-0.27,4.12,0.79c7.59,5.7,14.89,11.79,22.5701,17.38c0.4299-46.18-0.27-92.38,0.33-138.56
		c14.65,13.77,29.36,27.48,44.11,41.15c0.03,13.82,0.04,27.64,0,41.46c18.0601,17.24,36.34,34.25,54.35,51.56
		c23.97,22.21,47.3301,45.0699,71.29,67.29c74.1,70.24,148.3099,140.38,222.47,210.55c0.73,0.65,1.09,1.49,1.08,2.51
		c0.55,9.95-0.5499,19.98,0.4601,29.89c4.9199,4.97,11.0499,8.59,16.34,13.18c0.26,6.16-0.3,12.35,0.22,18.5
		c4.49,3.9,10.1901,6.15,15.05,9.6c0.04,2.12,0.09,4.24,0.16,6.38c-0.5-0.1-1.49-0.31-1.99-0.42
		c-21.2201-7.48-42.3501-15.22-63.53-22.8c-15.86-5.31-30.79-12.93-46.15-19.49c-18.71-8.29-37.41-16.6201-56.11-24.9301
		c-19.38-8.36-38.28-17.77-57.42-26.65c-17.21-8.15-34.4199-16.27-51.63-24.41c-7.7999-3.72-15.7799-7.12-23.12-11.71
		c-69.15-40.2-138.3099-80.39-207.36-120.76c-34.37-21.24-68.66-42.61-102.98-63.91c-15.55-9.46-30.7-19.62-46.6901-28.34
		c-43.72-24.61-87.47-49.17-131.1899-73.78c-6.67-3.67-13.14-7.69-20.04-10.92c-25.04-11.92-50.06-23.92-75.1-35.85
		c-23.43-10.95-46.45-22.76-70.27-32.82c-32.07-13.94-64.1201-27.92-96.17-41.87c-3.77-1.63-7.46-3.46-11.41-4.56
		c-23.73-6.39-47.43-12.84-71.15-19.25c-7.89-1.94-15.6-4.7-23.63-6.02c-25.65-2.88-51.3-5.8-76.94-8.74
		c-10.05-1.51-20.22-0.45-30.32-0.9c-3.95-0.21-7.99-0.44-11.82,0.72c-9.58,2.68-18.65,6.92-27.48,11.46
		c-7.58,4.11-15.35,8.21-21.68,14.16c-6.51,6.58-12.23,13.89-17.9,21.2c-3.72,4.97-7.7,9.78-10.86,15.16
		c-6.02,10.05-12.01,20.13-18.11,30.14c-5.38-10.68-9.43-21.98-13.97-33.04c-2.77-6.02-1.38-12.78-1.69-19.16
		c-0.75-15.06,4.22-29.55,8.07-43.9c1.38-5.31,4.59-9.83,7.3-14.52c2.57-4.35,4.77-8.99,8.22-12.74c5.46-5.89,10-12.61,16.06-17.95
		c10.61-10.78,21.93-20.82,33.63-30.4C483.52,339.97,498.2,330.36,513.17,321.24 M1365.23,598.9c-0.03,11.62-0.0699,23.24,0,34.86
		c2.27,1.87,4.3,4.16,7.11,5.28c-0.0499-11.39-0.0499-22.78-0.02-34.17C1370.12,602.69,1367.76,600.67,1365.23,598.9
		 M1380.42,612.16c0.0499,11.4301-0.14,22.8701,0.0699,34.3c2.08,1.77,4.26,3.46,6.64,4.86c0.27-11.06,0.38-22.18-0.03-33.23
		C1385.2,615.77,1382.6801,614.08,1380.42,612.16 M1395.25,625.67c-0.03,10.98-0.28,21.98,0.1,32.96
		c2.17,1.7,4.3101,3.46,6.4501,5.25c-0.02-10.96,0.26-21.94-0.12-32.89C1400.1899,628.58,1397.53,627.21,1395.25,625.67
		 M1409.67,638.52c-0.2001,10.55-0.0801,21.1-0.0701,31.65c2.02,1.77,4.12,3.46,6.3301,5c0.5099-7.72,0.1-15.46,0.24-23.19
		c-0.12-2.92,0.3199-5.94-0.4601-8.79C1414.12,641.15,1411.8101,639.87,1409.67,638.52 M1423.4399,651.06
		c0.03,10.06,0.13,20.12-0.0499,30.18c2.03,1.95,4.17,3.79,6.37,5.57c0.02-10.48,0.1899-20.97-0.0601-31.45
		C1427.74,653.76,1425.9399,651.76,1423.4399,651.06 M1437.21,662.72c-0.11,10.03-0.11,20.0601,0.02,30.09
		c1.8101,1.65,3.75,3.16,5.87,4.43c0.4-9.08,0.09-18.17,0.1901-27.25C1443.74,666.24,1439.75,664.52,1437.21,662.72 M1333.9,663.75
		c-0.09,8.75-0.0801,17.51-0.0701,26.26c0.13,1.37-0.26,3.22,1.1801,4.08c3.27,2.45,6.6799,4.72,10.13,6.92
		c0.24-9.71,0.22-19.43,0.0499-29.13C1342.03,668.48,1337.86,666.11,1333.9,663.75 M1450.28,674.03
		c-0.04,9.86-0.05,19.72,0.0399,29.58c1.88,1.57,3.8,3.1,5.8,4.54c0.37-9.72,0.11-19.46,0.14-29.19
		C1454.37,677.18,1452.38,675.52,1450.28,674.03 M1350.38,675.81c-0.03,9.57-0.0601,19.14,0.02,28.72
		c3.61,2.47,7.13,5.0699,10.7999,7.47c0.3401-9.67,0.12-19.35,0.1101-29.02C1357.67,680.57,1354.33,677.7,1350.38,675.81
		 M1463.25,685.68c-0.13,8.8-0.09,17.6-0.0699,26.41c-0.3501,3.34,3.46,4.5099,5.58,6.2599c0.01-9.42,0.25-18.85-0.11-28.24
		C1467.46,688.06,1465.0699,687.07,1463.25,685.68 M1366.28,687.01c0.02,9.47-0.17,18.95,0.11,28.42c3.47,2.27,6.77,4.81,10.36,6.93
		c0.13-9.39,0.08-18.78,0-28.17C1373.25,691.8,1369.83,689.3,1366.28,687.01 M1475.54,696.91c0.02,9.1,0.01,18.2,0.0299,27.31
		c1.7401,1.54,3.5901,2.95,5.6101,4.16c0.2699-8.12,0-16.24,0.1499-24.35C1481.95,700.37,1478.4,698.15,1475.54,696.91
		 M1381.8,698.7c-0.24,8.82-0.17,17.66-0.05,26.48c2.87,3.15,6.8199,5.15,10.3199,7.57c0.1901-7.94,0.02-15.87,0.1001-23.81
		c-0.2001-1.39,0.37-3.22-0.9801-4.14C1388.26,702.47,1385.16,700.34,1381.8,698.7 M1487.8,707.61c-0.26,8.84-0.04,17.68-0.12,26.53
		c1.7,1.5,3.5099,2.89,5.4399,4.12c0.22-8.8,0.22-17.61,0.05-26.41C1491.95,709.82,1489.76,708.73,1487.8,707.61 M1396.88,709.71
		c-0.13,8.7-0.55,17.5099,0.16,26.15c3,2.52,6.34,4.6,9.6799,6.67c0.0701-8.79-0.02-17.58,0.0601-26.3701
		C1403.58,713.86,1400.54,711.25,1396.88,709.71 M1499.39,717.31c0.0599,8.78,0.0499,17.57,0,26.36c1.6899,1.51,3.45,2.95,5.28,4.31
		c0.08-8.84,0.1499-17.68-0.04-26.51C1502.85,720.1,1501.11,718.71,1499.39,717.31 M1411.45,719.91
		c-0.0699,8.6-0.0299,17.21-0.0299,25.81c3.1599,2.2401,6.2899,4.57,9.6899,6.48c0.1901-8.4,0.3-16.83,0.02-25.22
		C1418.39,724.06,1414.77,722.1,1411.45,719.91 M1510.97,727.75c-0.28,7.75-0.09,15.52-0.14,23.28c-0.1799,3.11,3.12,4.47,5.15,6.15
		c0.35-7.73,0.1901-15.48,0.16-23.21C1516.46,730.74,1513.0699,729.37,1510.97,727.75 M1425.61,730.2
		c-0.12,8.3-0.01,16.6-0.08,24.91c3.12,2.32,6.22,4.71,9.65,6.59c0.1599-8.27-0.01-16.54,0.1-24.8
		C1432.17,734.49,1429,732.16,1425.61,730.2 M1522.24,737.5c-0.3099,3.15-0.51,6.32-0.34,9.49c0.34,5.24-0.48,10.52,0.39,15.74
		c1.5699,1.16,3.1499,2.31,4.7799,3.44c0.2301-7.38,0.0801-14.77,0.1001-22.15C1527.7,740.73,1524.25,739.3,1522.24,737.5
		 M1439.5,740.12c-0.0699,8.17-0.03,16.35-0.03,24.52c3,2.18,6.0701,4.29,9.1901,6.32c-0.02-8.19,0.0299-16.38-0.0701-24.56
		C1445.55,744.3,1442.5601,742.16,1439.5,740.12 M1532.91,747.02c-0.2201,7.35-0.17,14.7-0.13,22.05c-0.2101,3,2.98,4.36,4.9399,6
		c0.0901-7.38,0.0601-14.75,0.0601-22.12C1538.22,749.85,1534.8101,748.68,1532.91,747.02 M1453.0601,750.05
		c-0.5801,6.61-0.14,13.26-0.3,19.89c0.14,1.39-0.4401,3.26,0.9299,4.25c2.53,2.1,5.38,3.77,8.04,5.71
		c0.1901-7.9301,0.04-15.87,0.0701-23.8C1458.9399,754,1456.05,751.94,1453.0601,750.05 M1543.42,756.23
		c0.09,7.8-0.26,15.62,0.14,23.4c1.0599,1.59,2.8199,2.53,4.36,3.62c0.58-7.07,0.2-14.18,0.26-21.26
		C1548.38,759.05,1545.25,757.86,1543.42,756.23 M1465.9,759.73c-0.1901,7.49,0.0399,14.98-0.15,22.47
		c2.78,2.21,5.61,4.42,8.86,5.95c-0.08-7.58,0.1901-15.1801-0.14-22.7401C1471.9301,763.07,1468.95,761.28,1465.9,759.73
		 M1553.76,765.73c-0.37,7.43-0.1,14.88-0.1901,22.32c1.4901,1.29,3.02,2.53,4.62,3.72c0.2101-7.64,0.0801-15.29,0.0701-22.92
		C1556.79,767.75,1555.28,766.7,1553.76,765.73 M1478.71,768.81c-0.37,7.4-0.1,14.81-0.14,22.22c2.76,1.97,5.51,3.97,8.3101,5.92
		c0.76-7.33,0.11-14.72,0.4399-22.07C1484.6899,772.52,1481.78,770.51,1478.71,768.81 M1563.55,774.08
		c-0.13,7.36-0.0601,14.73-0.03,22.1c1.4,1.24,2.8199,2.49,4.26,3.74c0.64-6.63,0.3199-13.3,0.3099-19.95
		C1568.5,776.95,1565.51,775.62,1563.55,774.08 M1490.95,777.83c-0.2,7.05-0.34,14.13,0.02,21.17c1.99,2.39,4.9601,3.86,7.51,5.66
		c0.1901-0.08,0.5701-0.24,0.76-0.3199c0.04-6.81,0.14-13.64-0.05-20.44C1497.24,781.05,1493.85,779.55,1490.95,777.83
		 M1573.28,782.82c-0.0901,6.76-0.13,13.53,0,20.29c-0.12,2.36,2.76,3.03,4.1699,4.42c0.27-7.21,0.03-14.42,0.1101-21.63
		C1576.13,784.85,1574.72,783.82,1573.28,782.82 M1503.22,786.19c-0.7,6.91-0.52,13.89-0.27,20.81c2.02,2.62,5.2201,4.05,7.8601,6
		c0.33-7.2,0.6399-14.46-0.15-21.64C1508.0699,789.78,1505.6,788.04,1503.22,786.19 M1582.61,791.07
		c-0.11,6.3-0.14,12.61-0.0599,18.92c-0.3301,2.62,2.4399,3.75,4.1399,5.14c0.2001-6.4,0.15-12.81,0.0901-19.21
		C1587.12,793.34,1584.26,792.32,1582.61,791.07 M1514.54,794.99c-0.02,6.8,0.02,13.62-0.02,20.43c2.53,1.78,5.11,3.51,7.7999,5.07
		c0.2201-6.8,0.15-13.6,0.0601-20.4C1519.84,798.26,1517.35,796.35,1514.54,794.99 M1591.65,799.11
		c-0.16,6.7,0.0499,13.41-0.1,20.12c1.3199,1.07,2.6899,2.11,4.1399,3.06c0.0901-6.69,0.28-13.4-0.08-20.08
		C1594.65,800.79,1592.97,800.07,1591.65,799.11 M1526.0699,802.98c-0.23,6.62-0.47,13.29,0,19.89
		c2.0601,2.22,4.78,3.65,7.4401,5.07c-0.05-6.64,0.14-13.29-0.11-19.92C1530.91,806.38,1528.49,804.67,1526.0699,802.98
		 M1600.51,806.88c-0.09,6.56-0.0601,13.13-0.02,19.69c1.34,1.1,2.7,2.2,4.08,3.29c0.02-6.72,0.0801-13.44-0.0599-20.16
		C1603.16,808.75,1601.83,807.81,1600.51,806.88 M1537.02,810.98c-0.4,5.66-0.24,11.35-0.22,17.03
		c-0.2001,4.11,4.6899,5.28,7.4399,7.21c0.09-6.42,0.12-12.85,0.01-19.27C1541.85,814.26,1539.45,812.58,1537.02,810.98
		 M1609.27,814.61c-0.0801,6.42-0.02,12.85-0.03,19.28c1.25,0.86,2.5,1.71,3.8,2.57c0.3099-5.83,0.1799-11.67,0.1499-17.5
		C1613.3,816.65,1610.73,815.82,1609.27,814.61 M1547.58,818.99c0.0601,6.17-0.1799,12.36,0.05,18.53
		c2.16,1.97,4.75,3.42,7.0699,5.23c-0.0299-6.44,0.14-12.88-0.0499-19.31C1552.4,821.78,1550.08,820.22,1547.58,818.99
		 M1617.5,821.9c-0.03,6.24-0.02,12.49-0.01,18.75c1.23,0.87,2.48,1.74,3.75,2.62c0.3-6.17,0.02-12.33,0.21-18.49
		C1620.12,823.79,1618.8199,822.83,1617.5,821.9 M1558.15,826.72c-0.49,6-0.39,12.05-0.09,18.07
		c2.1699,1.61,4.4199,3.11,6.7999,4.45c0.39-5.76,0.38-11.56,0.14-17.32C1563.83,829.22,1560.51,828.2,1558.15,826.72
		 M1625.59,829.03c0,6.06,0.02,12.1299,0.02,18.2c1.25,0.89,2.52,1.8,3.8,2.7c0.0299-6.04,0.0299-12.09-0.03-18.12
		C1628.1,830.86,1626.84,829.94,1625.59,829.03 M1568.23,833.83c0.05,5.92-0.37,11.9,0.1801,17.81c1.88,1.78,4.1899,3.04,6.4,4.42
		c0.0399-5.95,0.0099-11.89,0.0199-17.83C1572.72,836.6,1570.53,835.12,1568.23,833.83 M1633.64,836.06
		c-0.12,5.34-0.13,10.69-0.08,16.04c-0.3501,2.26,2.1399,3.06,3.59,4.15c0.23-5.45,0.28-10.92,0.0699-16.36
		C1637.14,837.91,1634.86,837.17,1633.64,836.06 M1577.89,840.89c0.03,5.7-0.4,11.45,0.17,17.13c1.6799,2.02,4.2,3.07,6.3999,4.45
		c0.1801-5.8199,0.2001-11.64-0.0499-17.46C1582.26,843.57,1580.12,842.16,1577.89,840.89 M1641.35,842.84
		c-0.01,5.62-0.25,11.2599,0.04,16.87c0.84,1.27,2.12,2.18,3.25,3.23c0.0499-5.86,0.4-11.75-0.11-17.59
		C1643.6,844.33,1642.42,843.62,1641.35,842.84 M1587.53,847.96c-0.02,5.63-0.1,11.2599,0.0599,16.89
		c2.1,1.32,4.16,2.72,6.2101,4.14c0.12-5.67,0.0499-11.34,0.0499-17.01C1591.87,850.44,1589.77,849.04,1587.53,847.96
		 M1648.78,849.76c-0.13,5.4-0.3101,10.82,0.03,16.22c0.97,1.06,2.12,1.89,3.2799,2.79c0.23-5.29,0.29-10.6,0.1-15.88
		C1651.96,851.08,1650.1,850.5,1648.78,849.76 M1596.89,854.79c-0.15,5.12-0.3201,10.26-0.0701,15.38c1.0901,2.47,4.03,3.4,6.13,4.9
		c0.39-5.42,0.13-10.85,0.1801-16.27C1601.1801,857.26,1599.1,855.88,1596.89,854.79 M1656.24,855.82
		c-0.3099,5.34-0.65,10.74,0.0601,16.06c0.24,1.38,2.0399,1.56,2.96,2.43c0.3099-5.24,0-10.49,0.23-15.72
		C1658.39,857.65,1657.3101,856.73,1656.24,855.82 M1605.84,861c0,5.29-0.45,10.65,0.1901,15.91
		c1.63,1.7401,3.7899,2.84,5.7999,4.11c-0.0699-5.29,0.2201-10.59-0.14-15.87C1610,863.43,1607.83,862.3,1605.84,861
		 M1663.24,861.91c-0.2,5.35-0.0599,10.7-0.1,16.06c0.91,0.45,2.1,2.5601,3.14,1.35c0.14-4.84-0.0701-9.68,0.12-14.52
		C1665.33,863.82,1664.28,862.86,1663.24,861.91 M1614.5,867.31c0.16,5.11-0.2,10.24,0.14,15.36c1.5599,1.85,3.8099,2.91,5.85,4.2
		c-0.0599-5.26,0.14-10.52-0.12-15.78C1618.38,869.87,1616.42,868.59,1614.5,867.31 M1670.23,868.02
		c-0.5699,4.65-0.48,9.35-0.33,14.03c-0.1801,1.73,1.6699,2.64,2.5399,3.91c1.4901-4.89,0.42-10.08,0.8-15.1
		C1672.21,869.9,1671.22,868.95,1670.23,868.02 M1623.26,873.78c-0.11,5.02-0.0601,10.03-0.04,15.06c1.7001,1.29,3.54,2.44,5.49,3.4
		c0.0801-4.98,0.0801-9.96,0.05-14.94C1626.96,876.05,1625.14,874.86,1623.26,873.78 M1676.6,874.05
		c-0.0399,4.63-0.15,9.26-0.01,13.88c-0.12,1.75,1.92,2.28,3.0701,3.16c0.1-4.96,0.08-9.92-0.01-14.88
		C1678.61,875.48,1677.6,874.76,1676.6,874.05 M1631.38,879.86c0.1,4.64-0.2,9.29,0.08,13.92c1.13,1.95,3.55,2.83,5.3301,4.1899
		c0.0399-4.95,0.63-9.9,0.02-14.83C1635.08,881.89,1633.28,880.77,1631.38,879.86 M1683.24,879.84c0.01,4.92-0.4399,9.89,0.2,14.79
		c0.8201,0.61,1.7001,1.17,2.65,1.68c0.05-4.49,0.29-8.98-0.0299-13.44C1685.96,881.23,1684.33,880.65,1683.24,879.84
		 M1689.4399,885.28c0.05,4.95-0.23,9.92,0.2101,14.87c0.66,0.23,1.98,0.69,2.64,0.93c0.09-4.67,0.1799-9.33-0.0601-13.99
		C1691.26,886.47,1690.35,885.88,1689.4399,885.28 M1639.58,885.67c-0.26,4.77-0.24,9.55-0.0499,14.33
		c1.72,1.05,3.45,2.12,5.21,3.17c0.01-4.66,0.3101-9.34-0.09-13.98C1643.39,887.49,1641.3199,886.7,1639.58,885.67
		 M1695.5699,891.01c0.01,4.48-0.24,8.98,0.0901,13.46c0.7799,0.71,1.65,1.35,2.59,1.9301c0.1-4.48,0.35-8.97,0.03-13.4301
		C1697.5699,892.03,1696.48,891.61,1695.5699,891.01 M1647.4399,904.76c0.9601,1.88,3.3,2.54,5.16,3.35
		c-0.0599-4.54-0.0399-9.06-0.0599-13.59c-1.6901-1.1-3.37-2.22-5.02-3.31C1647.23,895.71,1647.11,900.25,1647.4399,904.76
		 M1701.46,896.31c-0.0399,4.4-0.02,8.8,0.0601,13.21c0.87,0.55,1.76,1.11,2.6799,1.69c-0.21-4.83,0.99-9.94-0.88-14.53
		C1702.85,896.59,1701.92,896.4,1701.46,896.31 M1654.8101,896.78c0,4.42-0.3301,8.86,0.1399,13.27
		c1.4801,1.47,3.3501,2.46,5.12,3.58c-0.0099-4.5,0.39-9.02-0.1499-13.48C1658.51,898.61,1656.5699,897.77,1654.8101,896.78
		 M1707.36,900.96c-0.1,3.99-0.23,8-0.0699,12.0099c-0.15,1.52,1.5,2.2,2.4099,3.15c0.2001-4.05,0.79-8.13,0.2101-12.17
		C1709.78,902.49,1708.24,901.87,1707.36,900.96 M1662.3101,902.03c0.0099,4.2599-0.26,8.53,0.1,12.78
		c0.88,1.86,3.1799,2.45,4.86,3.44c0.1-4.11,0.3199-8.23,0.02-12.33C1666.23,904.04,1663.97,903.27,1662.3101,902.03
		 M1713.08,905.96c-0.4299,4.02-0.5399,8.1-0.1599,12.14c0.62,1.12,1.7,1.89,2.63,2.78c-0.0601-4.19,0.24-8.4-0.12-12.57
		C1714.7,907.44,1713.86,906.71,1713.08,905.96 M1669.41,907.15c0.11,4.22,0.11,8.46,0.01,12.69
		c1.5399,1.18,3.12,2.3199,4.7799,3.3799c0.2301-4.17,0.1001-8.34,0.25-12.5099C1672.8101,909.45,1671.12,908.27,1669.41,907.15
		 M1718.4,910.93c-0.04,3.67-0.17,7.35,0.02,11.03c-0.2101,1.55,1.37,2.22,2.3199,3.16c0.72-4.24,0.4-8.6-0.3-12.81
		C1719.75,911.82,1719.08,911.36,1718.4,910.93 M1676.38,912.84c-0.02,3.93,0.05,7.86,0.02,11.8c1.48,1.23,3.08,2.28,4.89,3.04
		c0.0599-3.97-0.05-7.93,0.09-11.89C1679.91,914.47,1678.26,913.41,1676.38,912.84 M1723.9,915.66
		c-0.3301,3.45-0.37,6.92-0.24,10.39c-0.4,1.63,1.4299,2.3,2.4299,3.14c0.16-3.43,0.29-6.87,0.12-10.3
		C1726.45,917.29,1724.91,916.46,1723.9,915.66 M1683.3199,917.58c-0.0399,4,0,8.01,0.0701,12.03c1.45,0.88,2.9299,1.77,4.41,2.67
		c0.0699-4.0601,0.0399-8.1201,0-12.17C1686.3,919.24,1684.8101,918.4,1683.3199,917.58 M1728.95,920.69
		c-0.1799,3.12-0.35,6.25-0.1799,9.39c-0.3,1.65,1.35,2.37,2.4,3.26c0.1799-3.78,0.4199-7.57,0.0499-11.33
		C1730.65,921.68,1729.51,921.02,1728.95,920.69 M1690.08,922.06c-0.2999,3.67-0.5399,7.37-0.1699,11.06
		c0.58,1.94,2.87,2.48,4.34,3.61c0.16-3.89,0.15-7.78,0.12-11.67C1692.9301,924.05,1691.5,923.05,1690.08,922.06 M1734.1899,924.71
		c-0.2999,3.08-0.5199,6.18-0.35,9.29c-0.37,1.73,0.9,2.6,2.27,3.3c0.14-3.13,0.27-6.27,0.15-9.39
		C1736.53,926.38,1735.05,925.6,1734.1899,924.71 M1696.26,926.79c-0.05,3.86-0.04,7.73,0.1,11.59c1.4,0.83,2.78,1.64,4.23,2.49
		c0.0601-3.75,0.05-7.49,0.11-11.23C1699.22,928.65,1697.75,927.71,1696.26,926.79 M1738.71,937.98
		c-0.39,1.65,0.9601,2.58,2.1801,3.31c0.3199-4.17,1.22-8.77-1.1901-12.5C1737.78,931.4,1738.88,934.95,1738.71,937.98
		 M1701.54,931.31c0.6499,3.8-1.3,8.49,1.27,11.69c1.3199,0.62,2.6499,1.27,3.99,1.96c-0.0601-3.67-0.0701-7.33-0.15-10.98
		c-1.09-0.73-2.16-1.45-3.2101-2.16l0.16-0.65C1703.08,931.2,1702.05,931.28,1701.54,931.31 M1708.64,935.73
		c-0.15,3.52-0.11,7.06-0.1801,10.61c1.38,0.92,2.7201,1.83,4.16,2.7599c0.02-3.42,0.24-6.84-0.05-10.23
		C1712.11,937.11,1709.88,936.75,1708.64,935.73 M1714.46,939.95c-0.1,3.46-0.0499,6.93-0.1499,10.4c1.34,0.88,2.6799,1.73,4.1,2.58
		c0.0699-3.46,0.0499-6.91,0.22-10.35C1717.24,941.69,1715.83,940.77,1714.46,939.95 M1720.27,944.01
		c-0.04,3.33-0.26,6.68,0.0499,10.01c0.66,1.5,2.51,1.88,3.8201,2.72c0.0499-3.25,0.28-6.5-0.04-9.73
		C1723.0601,945.72,1721.58,944.94,1720.27,944.01 M1725.77,948.28c-0.04,3.25-0.28,6.52,0.16,9.77c0.88,1,2.1599,1.46,3.37,2.07
		c0.61,0.63,1.2699,1.22,2,1.79c1.11,0.7,2.24,1.4,3.3999,2.11c0.0701-3.13,0.0801-6.26,0.2001-9.37
		c-1.2101-0.9901-2.47-1.84-3.87-2.44c-0.6-0.73-1.1901-1.43-1.78-2.12C1728.08,949.47,1726.92,948.87,1725.77,948.28
		 M1735.4399,955.41c0.64,3.44-1.2899,7.9301,1.54,10.6201c1.02,0.41,2.0701,0.78,3.16,1.1299c-0.15-3.72,1.2999-8.56-2.48-10.96
		C1736.9,955.91,1736.14,955.64,1735.4399,955.41 M1741.71,959.69c-0.1499,2.9-0.21,5.8-0.2999,8.71
		c1.0599,0.87,2.15,1.75,3.26,2.62c0.49,0.3,1.48,0.89,1.97,1.19c1.09,0.63,2.22,1.29,3.36,1.94c-0.1801-3.52,1.55-8.63-2.48-10.53
		l0.0499-0.27c-0.97-0.39-1.9199-0.77-2.84-1.14C1744.58,960.73,1742.5699,960.57,1741.71,959.69 M1751.37,967.01
		c-0.03,2.8-0.01,5.61,0.05,8.43c0.62,0.4,1.85,1.22,2.47,1.62l-0.41,0.77c2.3101,1.79,4.96,3.03,7.71,4.01l0.04,0.54
		c0.78,0.43,1.5801,0.88,2.4,1.34c0.05-2.78,0.0699-5.55,0.04-8.31c-0.5701-0.42-1.7101-1.25-2.28-1.66l0.04-0.33
		c-0.8501-0.46-1.67-0.91-2.4701-1.35c-0.98-0.68-1.9299-1.34-2.88-1.99c-0.2999-0.97-0.9399-1.64-1.89-2
		C1753.23,967.71,1752.29,967.35,1751.37,967.01z"/>
	<path fill="#F9F1CE" stroke="#F9F1CE" stroke-width="0.0938" d="M1226.71,437.46c7.8201,6.78,14.92,14.36,22.4501,21.47
		c19.33,18.53,38.3099,37.44,57.8199,55.78l-1.15,0.2c-1.62,0.3-3.25,0.42-4.85,0.42c-24.74-0.13-49.48,0.04-74.21-0.08
		C1226.65,489.32,1226.77,463.39,1226.71,437.46z"/>
	<path fill="#4591C6" stroke="#4591C6" stroke-width="0.0938" d="M1018.39,437.34c16.15-0.12,32.2999-0.07,48.45,0.03
		c53.29,0.15,106.5801-0.03,159.87,0.09c0.0601,25.93-0.0599,51.86,0.0601,77.79c24.73,0.12,49.47-0.05,74.21,0.08
		c1.6,0,3.23-0.12,4.85-0.42l1.15-0.2l0.36-0.03c7.2201,0.46,14.4501-0.16,21.67,0.47c9.45-0.46,18.95-0.73,28.38,0.27
		c-0.6,46.18,0.1,92.38-0.33,138.56c-7.6801-5.59-14.9801-11.68-22.5701-17.38c-1.17-1.06-2.73-0.78-4.12-0.79
		c0.03,29.46,0.1801,58.92-0.0699,88.38c-6-3.51-11.6001-7.65-17.5901-11.16c-0.09,3.15-0.38,6.34-1.45,9.34
		c-1.92,5.5-3.3101,11.34-6.96,16.03c-3.5801,5.98-9.92,11.38-17.29,10.81c-3.54-0.1-7.1901,0.32-10.62-0.7
		c-12.4501-5.5-23.49-13.59-34.92-20.88c-16.7899-10.58-33.77-20.85-50.45-31.6c-7.49-5.1201-15.51-9.58-22.0601-15.92
		c-7.9199-6.26-13.73-14.75-18.5599-23.51c-4.9-8.02-5.61-17.6-8.04-26.48c-2.2-7.19-1.11-14.71-1.39-22.08
		c-8.9099-5.37-17.58-11.14-26.39-16.67c-22.5699-13.42-45.48-26.28-67.7-40.29c-19.25-12.17-38.88-23.71-58.45-35.35
		c9.91-1.08,19.89-0.07,29.82-0.51C1018.6,489.27,1018.29,463.3,1018.39,437.34z"/>
	<path fill="#4591C6" stroke="#4591C6" stroke-width="0.0938" d="M1365.23,598.9c2.53,1.77,4.89,3.79,7.09,5.97
		c-0.0299,11.39-0.0299,22.78,0.02,34.17c-2.8099-1.12-4.84-3.41-7.11-5.28C1365.16,622.14,1365.2,610.52,1365.23,598.9z"/>
	<path fill="#4591C6" stroke="#4591C6" stroke-width="0.0938" d="M1380.42,612.16c2.26,1.92,4.7799,3.61,6.6799,5.9301
		c0.41,11.05,0.3,22.17,0.03,33.23c-2.38-1.4-4.5601-3.09-6.64-4.86C1380.28,635.03,1380.47,623.59,1380.42,612.16z"/>
	<path fill="#4591C6" stroke="#4591C6" stroke-width="0.0938" d="M756.05,619.77c3.48-1.37,7.88-0.75,9.57,2.95
		c-0.03,1.5-0.05,3.01-0.04,4.52c-1.14,1.39-2.23,2.83-3.54,4.06c-1.96,0.86-4.19,0.32-6.25,0.4c-0.79-0.88-1.58-1.75-2.36-2.62
		C753.16,625.77,752.8,621.8,756.05,619.77z"/>
	<path fill="#4591C6" stroke="#4591C6" stroke-width="0.0938" d="M1395.25,625.67c2.28,1.54,4.9399,2.91,6.4301,5.32
		c0.38,10.95,0.1,21.93,0.12,32.89c-2.14-1.79-4.28-3.55-6.4501-5.25C1394.97,647.65,1395.22,636.65,1395.25,625.67z"/>
	<path fill="#4591C6" stroke="#4591C6" stroke-width="0.0938" d="M1409.67,638.52c2.14,1.35,4.45,2.63,6.0399,4.67
		c0.78,2.85,0.3401,5.87,0.4601,8.79c-0.14,7.73,0.2699,15.47-0.24,23.19c-2.2101-1.54-4.3101-3.23-6.3301-5
		C1409.59,659.62,1409.47,649.07,1409.67,638.52z"/>
	<path fill="#4591C6" stroke="#4591C6" stroke-width="0.0938" d="M811,641.96c1.61-0.47,3.43-0.45,5.09-0.09
		c1.3199,1.17,2.45,2.6,3.2,4.22c1.11,3.94-1.96,7.7599-5.46,9.17c-3.26,1.08-5.77-1.95-7.04-4.52
		C805.83,647.19,808.5,644.09,811,641.96z"/>
	<path fill="#4591C6" stroke="#4591C6" stroke-width="0.0938" d="M1423.4399,651.06c2.5,0.7,4.3,2.7,6.26,4.3
		c0.25,10.48,0.0801,20.97,0.0601,31.45c-2.2-1.78-4.34-3.62-6.37-5.57C1423.5699,671.18,1423.47,661.12,1423.4399,651.06z"/>
	<path fill="#4591C6" stroke="#4591C6" stroke-width="0.0938" d="M862.91,663.68c2.16-0.12,4.32,0.18,6.32,1.06
		c1.62,3.49,2.31,8.64-1.69,10.8c-1.92,2.38-5,1.96-7.23,0.29c-1.86-1.87-2.24-4.78-1.46-7.22
		C859.9,666.74,861.5,665.27,862.91,663.68z"/>
	<path fill="#4591C6" stroke="#4591C6" stroke-width="0.0938" d="M1437.21,662.72c2.54,1.8,6.53,3.52,6.0801,7.27
		c-0.1001,9.08,0.21,18.17-0.1901,27.25c-2.12-1.27-4.0599-2.78-5.87-4.43C1437.1,682.78,1437.1,672.75,1437.21,662.72z"/>
	<path fill="#4591C6" stroke="#4591C6" stroke-width="0.0938" d="M1333.9,663.75c3.96,2.36,8.13,4.73,11.2899,8.13
		c0.17,9.7,0.1901,19.42-0.0499,29.13c-3.4501-2.2-6.86-4.47-10.13-6.92c-1.4401-0.86-1.05-2.71-1.1801-4.08
		C1333.8199,681.26,1333.8101,672.5,1333.9,663.75z"/>
	<path fill="#4591C6" stroke="#4591C6" stroke-width="0.0938" d="M1450.28,674.03c2.1,1.49,4.09,3.15,5.98,4.93
		c-0.03,9.73,0.23,19.47-0.14,29.19c-2-1.44-3.92-2.97-5.8-4.54C1450.23,693.75,1450.24,683.89,1450.28,674.03z"/>
	<path fill="#4591C6" stroke="#4591C6" stroke-width="0.0938" d="M1350.38,675.81c3.95,1.89,7.29,4.76,10.9301,7.17
		c0.0099,9.67,0.23,19.35-0.1101,29.02c-3.6699-2.4-7.1899-5-10.7999-7.47C1350.3199,694.95,1350.35,685.38,1350.38,675.81z"/>
	<path fill="#4591C6" stroke="#4591C6" stroke-width="0.0938" d="M911.56,685.39c1.94,0,3.89,0,5.84,0.02
		c0.66,1.15,1.34,2.3,2.03,3.47c0.02,0.8,0.05,2.4,0.07,3.2c-1.19,2.61-3.15,5.87-6.49,5.55c-1.91,0.28-3.17-1.35-4.56-2.31
		c-0.03-2.19-0.57-4.51,0.25-6.6C909.53,687.51,910.57,686.47,911.56,685.39z"/>
	<path fill="#4591C6" stroke="#4591C6" stroke-width="0.0938" d="M1463.25,685.68c1.8199,1.39,4.21,2.38,5.4,4.43
		c0.36,9.39,0.12,18.82,0.11,28.24c-2.12-1.75-5.9301-2.92-5.58-6.2599C1463.16,703.28,1463.12,694.48,1463.25,685.68z"/>
	<path fill="#4591C6" stroke="#4591C6" stroke-width="0.0938" d="M1366.28,687.01c3.5499,2.29,6.97,4.79,10.47,7.18
		c0.08,9.39,0.13,18.78,0,28.17c-3.59-2.12-6.89-4.66-10.36-6.93C1366.11,705.96,1366.3,696.48,1366.28,687.01z"/>
	<path fill="#4591C6" stroke="#4591C6" stroke-width="0.0938" d="M1475.54,696.91c2.86,1.2401,6.4099,3.46,5.7899,7.1201
		c-0.1499,8.11,0.12,16.23-0.1499,24.35c-2.02-1.21-3.87-2.62-5.6101-4.16C1475.55,715.11,1475.5601,706.01,1475.54,696.91z"/>
	<path fill="#4591C6" stroke="#4591C6" stroke-width="0.0938" d="M1381.8,698.7c3.36,1.64,6.46,3.77,9.3899,6.1
		c1.3501,0.92,0.78,2.75,0.9801,4.14c-0.0801,7.94,0.09,15.87-0.1001,23.81c-3.5-2.42-7.45-4.42-10.3199-7.57
		C1381.63,716.36,1381.5601,707.52,1381.8,698.7z"/>
	<path fill="#4591C6" stroke="#4591C6" stroke-width="0.0938" d="M958.97,705.77c2.2-1.04,4.6-0.18,6.6201,0.9
		c0.06,2.26,0.09,4.53,0.0699,6.8c-1.91,1.8701-3.75,4.89-6.8799,4.1201C953.89,715.61,954.28,707.74,958.97,705.77z"/>
	<path fill="#4591C6" stroke="#4591C6" stroke-width="0.0938" d="M1487.8,707.61c1.96,1.12,4.1499,2.21,5.37,4.24
		c0.1699,8.8,0.1699,17.61-0.05,26.41c-1.9301-1.23-3.74-2.62-5.4399-4.12C1487.76,725.29,1487.54,716.45,1487.8,707.61z"/>
	<path fill="#4591C6" stroke="#4591C6" stroke-width="0.0938" d="M1396.88,709.71c3.66,1.54,6.7,4.15,9.9,6.45
		c-0.0801,8.79,0.01,17.58-0.0601,26.3701c-3.34-2.07-6.6799-4.15-9.6799-6.67C1396.33,727.22,1396.75,718.41,1396.88,709.71z"/>
	<path fill="#4591C6" stroke="#4591C6" stroke-width="0.0938" d="M1499.39,717.31c1.72,1.4,3.46,2.79,5.24,4.16
		c0.1899,8.83,0.12,17.67,0.04,26.51c-1.8301-1.36-3.5901-2.8-5.28-4.31C1499.4399,734.88,1499.45,726.09,1499.39,717.31z"/>
	<path fill="#4591C6" stroke="#4591C6" stroke-width="0.0938" d="M1411.45,719.91c3.3201,2.19,6.9401,4.15,9.6801,7.07
		c0.28,8.39,0.17,16.82-0.02,25.22c-3.4-1.91-6.53-4.24-9.6899-6.48C1411.42,737.12,1411.38,728.51,1411.45,719.91z"/>
	<path fill="#4591C6" stroke="#4591C6" stroke-width="0.0938" d="M1000.75,733.94c-1.5-3.49,0.63-8.39,4.23-9.53
		c3.32-1.09,6.05,2.48,5.56,5.55c0.2,2.46-1.7599,4.17-3.14,5.92C1005.14,735.51,1001.82,736.64,1000.75,733.94z"/>
	<path fill="#4591C6" stroke="#4591C6" stroke-width="0.0938" d="M1510.97,727.75c2.1,1.62,5.49,2.99,5.17,6.22
		c0.03,7.73,0.1899,15.48-0.16,23.21c-2.03-1.68-5.33-3.04-5.15-6.15C1510.88,743.27,1510.6899,735.5,1510.97,727.75z"/>
	<path fill="#4591C6" stroke="#4591C6" stroke-width="0.0938" d="M1425.61,730.2c3.39,1.96,6.5601,4.29,9.67,6.7
		c-0.11,8.2599,0.0599,16.53-0.1,24.8c-3.4301-1.88-6.53-4.27-9.65-6.59C1425.6,746.8,1425.49,738.5,1425.61,730.2z"/>
	<path fill="#4591C6" stroke="#4591C6" stroke-width="0.0938" d="M1522.24,737.5c2.01,1.8,5.46,3.23,4.9301,6.52
		c-0.02,7.38,0.13,14.77-0.1001,22.15c-1.63-1.13-3.21-2.28-4.7799-3.44c-0.87-5.22-0.05-10.5-0.39-15.74
		C1521.73,743.82,1521.9301,740.65,1522.24,737.5z"/>
	<path fill="#4591C6" stroke="#4591C6" stroke-width="0.0938" d="M1439.5,740.12c3.0601,2.04,6.05,4.18,9.09,6.28
		c0.1,8.18,0.05,16.37,0.0701,24.56c-3.12-2.03-6.1901-4.14-9.1901-6.32C1439.47,756.47,1439.4301,748.29,1439.5,740.12z"/>
	<path fill="#4591C6" stroke="#4591C6" stroke-width="0.0938" d="M1044.52,745.48c1.2999-1.94,3.52-2.81,5.6899-3.37
		c2.42,1.99,4.3301,5.4,2.38,8.4c-1.0499,3.57-5.0699,4.93-8.2,3.08C1043.49,751.02,1042.65,747.82,1044.52,745.48z"/>
	<path fill="#4591C6" stroke="#4591C6" stroke-width="0.0938" d="M1532.91,747.02c1.9,1.66,5.3099,2.83,4.87,5.93
		c0,7.37,0.03,14.74-0.0601,22.12c-1.96-1.64-5.15-3-4.9399-6C1532.74,761.72,1532.6899,754.37,1532.91,747.02z"/>
	<path fill="#4591C6" stroke="#4591C6" stroke-width="0.0938" d="M1453.0601,750.05c2.99,1.89,5.8799,3.95,8.74,6.05
		c-0.03,7.9301,0.12,15.87-0.0701,23.8c-2.66-1.94-5.51-3.61-8.04-5.71c-1.37-0.99-0.7899-2.86-0.9299-4.25
		C1452.92,763.31,1452.48,756.66,1453.0601,750.05z"/>
	<path fill="#4591C6" stroke="#4591C6" stroke-width="0.0938" d="M1543.42,756.23c1.83,1.63,4.96,2.82,4.76,5.76
		c-0.0601,7.08,0.3199,14.19-0.26,21.26c-1.54-1.09-3.3-2.03-4.36-3.62C1543.16,771.85,1543.51,764.03,1543.42,756.23z"/>
	<path fill="#4591C6" stroke="#4591C6" stroke-width="0.0938" d="M1465.9,759.73c3.0499,1.55,6.03,3.34,8.5699,5.68
		c0.3301,7.56,0.0601,15.16,0.14,22.7401c-3.25-1.53-6.08-3.7401-8.86-5.95C1465.9399,774.71,1465.71,767.22,1465.9,759.73z"/>
	<path fill="#4591C6" stroke="#4591C6" stroke-width="0.0938" d="M1084.35,769.12c-0.23-3.35,1.1801-6.43,3.4-8.84
		c2.38-0.28,4.67,0.28,6.0601,2.39c0.7999,4.41-2.14,9.51-7.03,9.14C1085.96,770.9,1085.15,770,1084.35,769.12z"/>
	<path fill="#4591C6" stroke="#4591C6" stroke-width="0.0938" d="M1553.76,765.73c1.52,0.97,3.03,2.02,4.5,3.12
		c0.01,7.63,0.14,15.28-0.0701,22.92c-1.6-1.19-3.1299-2.43-4.62-3.72C1553.66,780.61,1553.39,773.16,1553.76,765.73z"/>
	<path fill="#4591C6" stroke="#4591C6" stroke-width="0.0938" d="M1478.71,768.81c3.0701,1.7,5.98,3.71,8.61,6.07
		c-0.33,7.35,0.3201,14.74-0.4399,22.07c-2.8-1.95-5.55-3.95-8.3101-5.92C1478.61,783.62,1478.34,776.21,1478.71,768.81z"/>
	<path fill="#4591C6" stroke="#4591C6" stroke-width="0.0938" d="M1563.55,774.08c1.96,1.54,4.95,2.87,4.5399,5.89
		c0.01,6.65,0.3301,13.32-0.3099,19.95c-1.4401-1.25-2.86-2.5-4.26-3.74C1563.49,788.81,1563.42,781.44,1563.55,774.08z"/>
	<path fill="#4591C6" stroke="#4591C6" stroke-width="0.0938" d="M1123.47,784.01c0.54-2.45,1.28-4.91,3.23-6.63
		c1.55-0.01,3.1001-0.03,4.67-0.06c2.5699,4.01,0.99,9.22-3.21,11.33c-1.1901-0.45-2.37-0.88-3.54-1.3
		C1124.23,786.22,1123.85,785.11,1123.47,784.01z"/>
	<path fill="#4591C6" stroke="#4591C6" stroke-width="0.0938" d="M1490.95,777.83c2.9,1.72,6.29,3.22,8.24,6.07
		c0.1901,6.8,0.0901,13.63,0.05,20.44c-0.1899,0.08-0.5699,0.24-0.76,0.3199c-2.5499-1.8-5.52-3.27-7.51-5.66
		C1490.61,791.96,1490.75,784.88,1490.95,777.83z"/>
	<path fill="#4591C6" stroke="#4591C6" stroke-width="0.0938" d="M1573.28,782.82c1.4399,1,2.85,2.03,4.28,3.08
		c-0.0801,7.21,0.1599,14.42-0.1101,21.63c-1.4099-1.39-4.2899-2.0601-4.1699-4.42C1573.15,796.35,1573.1899,789.58,1573.28,782.82z
		"/>
	<path fill="#4591C6" stroke="#4591C6" stroke-width="0.0938" d="M1503.22,786.19c2.38,1.85,4.85,3.59,7.4401,5.17
		c0.7899,7.18,0.48,14.44,0.15,21.64c-2.64-1.95-5.8401-3.38-7.8601-6C1502.7,800.08,1502.52,793.1,1503.22,786.19z"/>
	<path fill="#4591C6" stroke="#4591C6" stroke-width="0.0938" d="M1161.63,796.64c1.0599-1.93,3.0699-3.11,4.42-4.84
		c1.48,1.03,3.59,1.96,3.5699,4.1c0.8,2.9-1.15,5.28-2.45,7.64c-1.89,0.08-3.76,0.06-5.61-0.07
		C1161.47,801.2,1161.13,798.88,1161.63,796.64z"/>
	<path fill="#4591C6" stroke="#4591C6" stroke-width="0.0938" d="M1582.61,791.07c1.65,1.25,4.51,2.27,4.17,4.85
		c0.0599,6.4,0.11,12.81-0.0901,19.21c-1.7-1.39-4.47-2.52-4.1399-5.14C1582.47,803.68,1582.5,797.37,1582.61,791.07z"/>
	<path fill="#4591C6" stroke="#4591C6" stroke-width="0.0938" d="M1514.54,794.99c2.8099,1.36,5.2999,3.27,7.84,5.1
		c0.09,6.8,0.16,13.6-0.0601,20.4c-2.6899-1.56-5.2699-3.29-7.7999-5.07C1514.5601,808.61,1514.52,801.79,1514.54,794.99z"/>
	<path fill="#4591C6" stroke="#4591C6" stroke-width="0.0938" d="M1591.65,799.11c1.3199,0.96,3,1.68,3.96,3.1
		c0.36,6.68,0.17,13.39,0.08,20.08c-1.45-0.95-2.8199-1.99-4.1399-3.06C1591.7,812.52,1591.49,805.81,1591.65,799.11z"/>
	<path fill="#4591C6" stroke="#4591C6" stroke-width="0.0938" d="M1526.0699,802.98c2.42,1.69,4.8401,3.4,7.3301,5.04
		c0.25,6.63,0.0599,13.28,0.11,19.92c-2.66-1.42-5.38-2.85-7.4401-5.07C1525.6,816.27,1525.84,809.6,1526.0699,802.98z"/>
	<path fill="#4591C6" stroke="#4591C6" stroke-width="0.0938" d="M752.77,817.65c-0.92-4.21,2.6-7.28,5.51-9.64
		c2.65-0.45,4.74,1.81,6.89,3.02c0.16,2.71,0.93,5.8199-0.98,8.14c-1.62,3.53-6.26,4.09-9.31,2.14
		C754.22,820.04,753.51,818.83,752.77,817.65z"/>
	<path fill="#4591C6" stroke="#4591C6" stroke-width="0.0938" d="M1600.51,806.88c1.3199,0.93,2.65,1.87,4,2.82
		c0.14,6.72,0.08,13.44,0.0599,20.16c-1.38-1.09-2.74-2.19-4.08-3.29C1600.45,820.01,1600.42,813.44,1600.51,806.88z"/>
	<path fill="#4591C6" stroke="#4591C6" stroke-width="0.0938" d="M1197.35,811.74c1.6801-1.63,3.15-4.29,5.9501-3.37
		c2.5699,1.67,0.98,5.25,1.26,7.79c-0.8201,0.82-1.6101,1.67-2.39,2.52c-1.54-0.34-4.3201,0.75-4.77-1.42
		C1197.21,815.42,1197.3101,813.57,1197.35,811.74z"/>
	<path fill="#4591C6" stroke="#4591C6" stroke-width="0.0938" d="M1537.02,810.98c2.4299,1.6,4.83,3.28,7.23,4.97
		c0.11,6.42,0.08,12.85-0.01,19.27c-2.75-1.93-7.64-3.1-7.4399-7.21C1536.78,822.33,1536.62,816.64,1537.02,810.98z"/>
	<path fill="#4591C6" stroke="#4591C6" stroke-width="0.0938" d="M1609.27,814.61c1.46,1.21,4.03,2.04,3.9199,4.35
		c0.03,5.83,0.16,11.67-0.1499,17.5c-1.3-0.86-2.55-1.71-3.8-2.57C1609.25,827.46,1609.1899,821.03,1609.27,814.61z"/>
	<path fill="#4591C6" stroke="#4591C6" stroke-width="0.0938" d="M1547.58,818.99c2.5,1.23,4.8201,2.79,7.0701,4.45
		c0.1899,6.43,0.02,12.87,0.0499,19.31c-2.3199-1.81-4.9099-3.26-7.0699-5.23C1547.4,831.35,1547.64,825.16,1547.58,818.99z"/>
	<path fill="#4591C6" stroke="#4591C6" stroke-width="0.0938" d="M1617.5,821.9c1.3199,0.93,2.62,1.89,3.95,2.88
		c-0.1899,6.16,0.0901,12.3199-0.21,18.49c-1.27-0.88-2.52-1.75-3.75-2.62C1617.48,834.39,1617.47,828.14,1617.5,821.9z"/>
	<path fill="#4591C6" stroke="#4591C6" stroke-width="0.0938" d="M1232.87,833.49c-3.65-3.19-1.04-11.32,4.4301-10.17
		c2.85,1.96,1.13,6.27-0.03,8.89C1235.8101,832.65,1234.4399,833.69,1232.87,833.49z"/>
	<path fill="#4591C6" stroke="#4591C6" stroke-width="0.0938" d="M810.34,826.37c2.54-1.98,6.15-0.93,8.1299,1.36
		c0.04,3.05,0.94,6.72-1.73,8.99c-1.47,2.23-4.5,2.14-6.76,1.4301C806.38,835.3,806.44,828.93,810.34,826.37z"/>
	<path fill="#4591C6" stroke="#4591C6" stroke-width="0.0938" d="M1558.15,826.72c2.36,1.48,5.6799,2.5,6.85,5.2
		c0.24,5.76,0.25,11.56-0.14,17.32c-2.38-1.34-4.63-2.84-6.7999-4.45C1557.76,838.77,1557.66,832.72,1558.15,826.72z"/>
	<path fill="#4591C6" stroke="#4591C6" stroke-width="0.0938" d="M1625.59,829.03c1.25,0.91,2.51,1.83,3.79,2.78
		c0.0599,6.03,0.0599,12.08,0.03,18.12c-1.28-0.9-2.55-1.81-3.8-2.7C1625.61,841.16,1625.59,835.09,1625.59,829.03z"/>
	<path fill="#4591C6" stroke="#4591C6" stroke-width="0.0938" d="M1568.23,833.83c2.3,1.29,4.49,2.77,6.6,4.4
		c-0.01,5.94,0.02,11.88-0.0199,17.83c-2.2101-1.38-4.52-2.64-6.4-4.42C1567.86,845.73,1568.28,839.75,1568.23,833.83z"/>
	<path fill="#4591C6" stroke="#4591C6" stroke-width="0.0938" d="M1266.48,837.26c1.91,0.13,5.49-0.34,5.05,2.65
		c0.65,3.13-1.65,5.4301-3.67,7.41c-1.2999,0.06-2.59,0.12-3.86,0.2c1.36-0.39,2.75-0.75,4.14-1.12c-0.91,0.09-2.74,0.28-3.65,0.37
		C1262.85,843.43,1263.89,839.76,1266.48,837.26z"/>
	<path fill="#4591C6" stroke="#4591C6" stroke-width="0.0938" d="M1633.64,836.06c1.22,1.11,3.5,1.85,3.58,3.83
		c0.2101,5.44,0.16,10.91-0.0699,16.36c-1.4501-1.09-3.9401-1.89-3.59-4.15C1633.51,846.75,1633.52,841.4,1633.64,836.06z"/>
	<path fill="#4591C6" stroke="#4591C6" stroke-width="0.0938" d="M859.55,844.47c1.69-1.37,2.86-4.15,5.43-3.8199
		c2.31-0.4901,3.77,1.71,4.7,3.47c1.28,2.26,0.07,4.8-0.38,7.12c-0.73,0.67-1.45,1.34-2.16,2.02c-1.05,0.37-2.09,0.75-3.12,1.13
		c-1.12-0.38-2.23-0.74-3.33-1.08C858.82,850.7,859.38,847.45,859.55,844.47z"/>
	<path fill="#4591C6" stroke="#4591C6" stroke-width="0.0938" d="M1577.89,840.89c2.23,1.27,4.37,2.68,6.52,4.12
		c0.25,5.82,0.23,11.64,0.0499,17.46c-2.2-1.3799-4.72-2.43-6.3999-4.45C1577.49,852.34,1577.92,846.59,1577.89,840.89z"/>
	<path fill="#4591C6" stroke="#4591C6" stroke-width="0.0938" d="M1641.35,842.84c1.0701,0.78,2.25,1.49,3.1801,2.5099
		c0.51,5.84,0.1599,11.73,0.11,17.59c-1.13-1.05-2.41-1.96-3.25-3.23C1641.1,854.1,1641.34,848.46,1641.35,842.84z"/>
	<path fill="#4591C6" stroke="#4591C6" stroke-width="0.0938" d="M1587.53,847.96c2.24,1.08,4.34,2.48,6.3199,4.02
		c0,5.67,0.0701,11.34-0.0499,17.01c-2.05-1.42-4.1101-2.82-6.2101-4.14C1587.4301,859.22,1587.51,853.59,1587.53,847.96z"/>
	<path fill="#4591C6" stroke="#4591C6" stroke-width="0.0938" d="M1648.78,849.76c1.3199,0.74,3.1799,1.32,3.4099,3.13
		c0.1901,5.28,0.13,10.59-0.1,15.88c-1.1599-0.9-2.3099-1.73-3.2799-2.79C1648.47,860.58,1648.65,855.16,1648.78,849.76z"/>
	<path fill="#4591C6" stroke="#4591C6" stroke-width="0.0938" d="M1295.46,852.83c1.61-1.54,3.48-2.92,5.88-2.51
		c0.3401,1.25,0.7201,2.5,1.13,3.75c-0.75,3.06-2.6599,5.61-5.64,6.79C1294.51,858.77,1295.45,855.53,1295.46,852.83z"/>
	<path fill="#4591C6" stroke="#4591C6" stroke-width="0.0938" d="M1596.89,854.79c2.21,1.09,4.29,2.47,6.24,4.01
		c-0.05,5.42,0.21,10.85-0.1801,16.27c-2.1-1.5-5.0399-2.43-6.13-4.9C1596.5699,865.05,1596.74,859.91,1596.89,854.79z"/>
	<path fill="#4591C6" stroke="#4591C6" stroke-width="0.0938" d="M1656.24,855.82c1.0701,0.91,2.15,1.83,3.25,2.77
		c-0.23,5.23,0.08,10.48-0.23,15.72c-0.92-0.87-2.72-1.05-2.96-2.43C1655.59,866.56,1655.9301,861.16,1656.24,855.82z"/>
	<path fill="#4591C6" stroke="#4591C6" stroke-width="0.0938" d="M908.33,865.13c-0.53-3.44,1.4-6.27,3.46-8.77
		c1.54-0.03,3.1-0.06,4.66-0.09c2.9,3,3.37,8.65-0.21,11.31c-1.5,1.36-3.66,0.95-5.48,1.14
		C909.94,867.5,909.15,866.31,908.33,865.13z"/>
	<path fill="#4591C6" stroke="#4591C6" stroke-width="0.0938" d="M1605.84,861c1.99,1.3,4.16,2.43,5.85,4.15
		c0.3601,5.28,0.0701,10.58,0.14,15.87c-2.01-1.27-4.1699-2.37-5.7999-4.11C1605.39,871.65,1605.84,866.29,1605.84,861z"/>
	<path fill="#4591C6" stroke="#4591C6" stroke-width="0.0938" d="M1663.24,861.91c1.04,0.95,2.09,1.91,3.16,2.89
		c-0.1901,4.84,0.02,9.68-0.12,14.52c-1.04,1.21-2.23-0.9-3.14-1.35C1663.1801,872.61,1663.04,867.26,1663.24,861.91z"/>
	<path fill="#4591C6" stroke="#4591C6" stroke-width="0.0938" d="M1324.25,867.93c1.3199-2.63,3.58-6.01,7.01-4.16
		c1.28,3.18-0.25,7.11-3.11,8.88C1325.03,873.39,1324.1899,870.32,1324.25,867.93z"/>
	<path fill="#4591C6" stroke="#4591C6" stroke-width="0.0938" d="M1614.5,867.31c1.92,1.28,3.88,2.56,5.87,3.78
		c0.26,5.2599,0.0601,10.52,0.12,15.78c-2.04-1.29-4.29-2.35-5.85-4.2C1614.3,877.55,1614.66,872.42,1614.5,867.31z"/>
	<path fill="#4591C6" stroke="#4591C6" stroke-width="0.0938" d="M1670.23,868.02c0.99,0.93,1.98,1.88,3.01,2.84
		c-0.38,5.02,0.6901,10.21-0.8,15.1c-0.87-1.27-2.72-2.18-2.5399-3.91C1669.75,877.37,1669.66,872.67,1670.23,868.02z"/>
	<path fill="#4591C6" stroke="#4591C6" stroke-width="0.0938" d="M958.7,871.29c2.71-0.33,5.46-0.22,7.05,2.34
		c0.65,4.14-1.71,10.27-6.87,9.04c-4.29-0.41-2.22-6.12-2.57-8.99C957.1,872.88,957.9,872.08,958.7,871.29z"/>
	<path fill="#4591C6" stroke="#4591C6" stroke-width="0.0938" d="M1623.26,873.78c1.88,1.08,3.7,2.27,5.5,3.52
		c0.03,4.98,0.03,9.96-0.05,14.94c-1.95-0.96-3.7899-2.11-5.49-3.4C1623.2,883.81,1623.15,878.8,1623.26,873.78z"/>
	<path fill="#4591C6" stroke="#4591C6" stroke-width="0.0938" d="M1676.6,874.05c1,0.71,2.01,1.43,3.05,2.16
		c0.09,4.96,0.11,9.92,0.01,14.88c-1.15-0.88-3.1901-1.41-3.0701-3.16C1676.45,883.31,1676.5601,878.68,1676.6,874.05z"/>
	<path fill="#4591C6" stroke="#4591C6" stroke-width="0.0938" d="M1353.87,884.16c-2.08-3.8199,0.58-10.09,5.62-8.75
		C1360.5601,878.97,1358.66,886.05,1353.87,884.16z"/>
	<path fill="#4591C6" stroke="#4591C6" stroke-width="0.0938" d="M1631.38,879.86c1.9,0.91,3.7,2.03,5.4301,3.28
		c0.61,4.93,0.0199,9.88-0.02,14.83c-1.78-1.36-4.2001-2.24-5.3301-4.1899C1631.1801,889.15,1631.48,884.5,1631.38,879.86z"/>
	<path fill="#4591C6" stroke="#4591C6" stroke-width="0.0938" d="M1683.24,879.84c1.09,0.81,2.72,1.39,2.8201,3.03
		c0.3199,4.46,0.08,8.95,0.0299,13.44c-0.95-0.51-1.83-1.07-2.65-1.68C1682.8,889.73,1683.25,884.76,1683.24,879.84z"/>
	<path fill="#4591C6" stroke="#4591C6" stroke-width="0.0938" d="M1003.43,885.44c1.92-2.2,5.76-1.07,6.55,1.66
		c1.43,3.21-0.41,6.44-2.52,8.81c-2.01-0.12-4.02-0.21-6.02-0.31C1001.45,892.2,1000.05,887.72,1003.43,885.44z"/>
	<path fill="#4591C6" stroke="#4591C6" stroke-width="0.0938" d="M1689.4399,885.28c0.91,0.6,1.8201,1.1899,2.79,1.81
		c0.24,4.66,0.15,9.3199,0.0601,13.99c-0.66-0.24-1.98-0.7-2.64-0.93C1689.21,895.2,1689.49,890.23,1689.4399,885.28z"/>
	<path fill="#4591C6" stroke="#4591C6" stroke-width="0.0938" d="M1639.58,885.67c1.74,1.03,3.8101,1.82,5.0701,3.52
		c0.4,4.64,0.1,9.32,0.09,13.98c-1.76-1.05-3.49-2.12-5.21-3.17C1639.34,895.22,1639.3199,890.44,1639.58,885.67z"/>
	<path fill="#4591C6" stroke="#4591C6" stroke-width="0.0938" d="M1382.55,887.23c1.3199,0.08,2.6699,0.19,4.0199,0.32
		c0.2201,2.96-0.3199,5.86-2.2999,8.16c-1-0.02-2.99-0.07-3.99-0.09C1379.92,892.56,1380.53,889.61,1382.55,887.23z"/>
	<path fill="#4591C6" stroke="#4591C6" stroke-width="0.0938" d="M1695.5699,891.01c0.91,0.6,2,1.02,2.7101,1.96
		c0.3199,4.46,0.0699,8.95-0.03,13.4301c-0.9399-0.58-1.8101-1.22-2.59-1.9301C1695.33,899.99,1695.58,895.49,1695.5699,891.01z"/>
	<path fill="#4591C6" stroke="#4591C6" stroke-width="0.0938" d="M1647.4399,904.76c-0.33-4.51-0.21-9.05,0.0801-13.55
		c1.65,1.09,3.33,2.21,5.02,3.31c0.02,4.53,0,9.05,0.0599,13.59C1650.74,907.3,1648.4,906.64,1647.4399,904.76z"/>
	<path fill="#4591C6" stroke="#4591C6" stroke-width="0.0938" d="M1701.46,896.31c0.4601,0.09,1.39,0.28,1.86,0.37
		c1.87,4.59,0.67,9.7,0.88,14.53c-0.9199-0.58-1.8099-1.14-2.6799-1.69C1701.4399,905.11,1701.42,900.71,1701.46,896.31z"/>
	<path fill="#4591C6" stroke="#4591C6" stroke-width="0.0938" d="M1654.8101,896.78c1.7599,0.99,3.7,1.83,5.11,3.37
		c0.5399,4.46,0.14,8.98,0.1499,13.48c-1.7699-1.12-3.6399-2.11-5.12-3.58C1654.48,905.64,1654.8101,901.2,1654.8101,896.78z"/>
	<path fill="#4591C6" stroke="#4591C6" stroke-width="0.0938" d="M1046.7,898.22c1.5901,0,3.2001-0.0099,4.8201-0.0099
		c1.52,2.72,1.77,6.5099-0.11,9.12c-1.53,2.37-4.73,1.14-7.02,1.27c-0.14-2.64-0.1801-5.27-0.14-7.89
		C1045.0601,899.87,1045.87,899.04,1046.7,898.22z"/>
	<path fill="#4591C6" stroke="#4591C6" stroke-width="0.0938" d="M1408.63,898.17c0.96,0.09,2.87,0.27,3.83,0.36
		c-0.0499,2.29-0.46,4.55-1.11,6.7599c-1.53,0.91-3.24,1.43-4.99,1.55C1405.85,903.69,1406.48,900.59,1408.63,898.17z"/>
	<path fill="#4591C6" stroke="#4591C6" stroke-width="0.0938" d="M1707.36,900.96c0.88,0.91,2.42,1.53,2.55,2.99
		c0.58,4.04-0.01,8.12-0.2101,12.17c-0.9099-0.95-2.5599-1.63-2.4099-3.15C1707.13,908.96,1707.26,904.95,1707.36,900.96z"/>
	<path fill="#4591C6" stroke="#4591C6" stroke-width="0.0938" d="M1662.3101,902.03c1.6599,1.24,3.9199,2.0099,4.98,3.89
		c0.2999,4.1,0.08,8.22-0.02,12.33c-1.6801-0.99-3.98-1.58-4.86-3.44C1662.05,910.56,1662.3199,906.29,1662.3101,902.03z"/>
	<path fill="#4591C6" stroke="#4591C6" stroke-width="0.0938" d="M1713.08,905.96c0.78,0.75,1.62,1.48,2.3501,2.35
		c0.36,4.17,0.0599,8.38,0.12,12.57c-0.9301-0.89-2.01-1.66-2.63-2.78C1712.54,914.06,1712.65,909.98,1713.08,905.96z"/>
	<path fill="#4591C6" stroke="#4591C6" stroke-width="0.0938" d="M1669.41,907.15c1.71,1.12,3.4,2.3,5.0399,3.56
		c-0.1499,4.17-0.0199,8.34-0.25,12.5099c-1.6599-1.06-3.24-2.2-4.7799-3.3799C1669.52,915.61,1669.52,911.37,1669.41,907.15z"/>
	<path fill="#4591C6" stroke="#4591C6" stroke-width="0.0938" d="M1430.17,915.22c0.96-2.86,2.09-5.92,5.01-7.34
		c3.1,3.1,1,7.88-2.12,10.07C1432.08,917.03,1431.12,916.12,1430.17,915.22z"/>
	<path fill="#4591C6" stroke="#4591C6" stroke-width="0.0938" d="M1085.47,912.86c1.0901-0.88,2.1801-1.77,3.37-2.54
		c2.12-0.65,3.54,1.1,4.9501,2.36c-0.0701,3.04-0.8301,6.11-2.7201,8.57c-1.7599,0.69-3.6799,0.2-5.48,0.11
		C1085.23,918.53,1085.1899,915.68,1085.47,912.86z"/>
	<path fill="#4591C6" stroke="#4591C6" stroke-width="0.0938" d="M1718.4,910.93c0.6799,0.43,1.35,0.89,2.0399,1.38
		c0.7001,4.21,1.02,8.57,0.3,12.81c-0.95-0.94-2.53-1.61-2.3199-3.16C1718.23,918.28,1718.36,914.6,1718.4,910.93z"/>
	<path fill="#4591C6" stroke="#4591C6" stroke-width="0.0938" d="M1676.38,912.84c1.88,0.5699,3.53,1.6299,5,2.95
		c-0.14,3.96-0.03,7.92-0.09,11.89c-1.8101-0.76-3.41-1.81-4.89-3.04C1676.4301,920.7,1676.36,916.77,1676.38,912.84z"/>
	<path fill="#4591C6" stroke="#4591C6" stroke-width="0.0938" d="M1723.9,915.66c1.01,0.8,2.5499,1.63,2.3099,3.23
		c0.17,3.43,0.04,6.87-0.12,10.3c-1-0.84-2.83-1.51-2.4299-3.14C1723.53,922.58,1723.5699,919.11,1723.9,915.66z"/>
	<path fill="#4591C6" stroke="#4591C6" stroke-width="0.0938" d="M1683.3199,917.58c1.4901,0.82,2.9801,1.66,4.4801,2.53
		c0.0399,4.05,0.0699,8.11,0,12.17c-1.4801-0.9-2.9601-1.79-4.41-2.67C1683.3199,925.59,1683.28,921.58,1683.3199,917.58z"/>
	<path fill="#4591C6" stroke="#4591C6" stroke-width="0.0938" d="M1454.3199,926.51c-0.6-3.74,1.3501-7.15,4.89-8.49
		c1.9601,2.85,0.77,5.97-0.89,8.61C1456.98,926.59,1455.63,926.54,1454.3199,926.51z"/>
	<path fill="#4591C6" stroke="#4591C6" stroke-width="0.0938" d="M1728.95,920.69c0.5601,0.33,1.7001,0.99,2.27,1.32
		c0.37,3.76,0.13,7.55-0.0499,11.33c-1.05-0.89-2.7001-1.61-2.4-3.26C1728.6,926.94,1728.77,923.81,1728.95,920.69z"/>
	<path fill="#4591C6" stroke="#4591C6" stroke-width="0.0938" d="M1690.08,922.06c1.42,0.99,2.8501,1.99,4.29,3
		c0.03,3.89,0.04,7.78-0.12,11.67c-1.47-1.13-3.76-1.67-4.34-3.61C1689.54,929.43,1689.78,925.73,1690.08,922.06z"/>
	<path fill="#4591C6" stroke="#4591C6" stroke-width="0.0938" d="M1124.21,925.75c1.61-2.5,4.02-4.21,7.14-3.3
		c1.34,2.84,1.13,5.92,0.13,8.83c-1.76,1.6-4.0499,3.34-6.41,1.72C1123.6801,930.87,1124.4301,928.13,1124.21,925.75z"/>
	<path fill="#4591C6" stroke="#4591C6" stroke-width="0.0938" d="M1734.1899,924.71c0.8601,0.89,2.3401,1.67,2.0701,3.2
		c0.12,3.1201-0.01,6.26-0.15,9.39c-1.37-0.7-2.64-1.57-2.27-3.3C1733.67,930.89,1733.89,927.79,1734.1899,924.71z"/>
	<path fill="#4591C6" stroke="#4591C6" stroke-width="0.0938" d="M1696.26,926.79c1.49,0.92,2.96,1.86,4.4399,2.85
		c-0.0599,3.74-0.0499,7.48-0.11,11.23c-1.45-0.85-2.83-1.66-4.23-2.49C1696.22,934.52,1696.21,930.65,1696.26,926.79z"/>
	<path fill="#4591C6" stroke="#4591C6" stroke-width="0.0938" d="M1477.11,935.67c-0.01-2.96,0.75-6.64,4.03-7.6
		c2.87,1.62,0.73,5.17,0.25,7.55C1479.95,935.63,1478.51,935.64,1477.11,935.67z"/>
	<path fill="#4591C6" stroke="#4591C6" stroke-width="0.0938" d="M1738.71,937.98c0.17-3.03-0.9299-6.58,0.99-9.19
		c2.41,3.73,1.51,8.33,1.1901,12.5C1739.67,940.56,1738.3199,939.63,1738.71,937.98z"/>
	<path fill="#4591C6" stroke="#4591C6" stroke-width="0.0938" d="M1702.8101,943c-0.0601-3.74-0.4701-7.55,0.6299-11.18
		c1.05,0.71,2.1201,1.43,3.2101,2.16c0.08,3.65,0.09,7.31,0.15,10.98C1705.46,944.27,1704.13,943.62,1702.8101,943z"/>
	<path fill="#4591C6" stroke="#4591C6" stroke-width="0.0938" d="M1163.7,934.23c1.66,0.04,3.3401,0.07,5.03,0.13
		c-0.1799,3.31,1.3101,8.32-2.6,9.98c-0.87,0.0699-2.6,0.21-3.47,0.28C1160.5699,941.31,1161.29,937.15,1163.7,934.23z"/>
	<path fill="#4591C6" stroke="#4591C6" stroke-width="0.0938" d="M1708.64,935.73c1.24,1.02,3.47,1.38,3.9299,3.14
		c0.29,3.39,0.0701,6.81,0.05,10.23c-1.4399-0.93-2.78-1.84-4.16-2.7599C1708.53,942.79,1708.49,939.25,1708.64,935.73z"/>
	<path fill="#4591C6" stroke="#4591C6" stroke-width="0.0938" d="M1498.4,945.66c-0.14-3.12,0.51-6.85,3.63-8.35
		c2.7999,0.66,1.2899,3.98,1.5399,5.99C1502.17,944.8,1500.5699,946.04,1498.4,945.66z"/>
	<path fill="#4591C6" stroke="#4591C6" stroke-width="0.0938" d="M1714.46,939.95c1.37,0.82,2.78,1.74,4.17,2.63
		c-0.17,3.44-0.15,6.89-0.22,10.35c-1.42-0.85-2.76-1.7-4.1-2.58C1714.41,946.88,1714.36,943.41,1714.46,939.95z"/>
	<path fill="#4591C6" stroke="#4591C6" stroke-width="0.0938" d="M1720.27,944.01c1.3099,0.93,2.79,1.71,3.83,3
		c0.3201,3.23,0.09,6.48,0.04,9.73c-1.3101-0.84-3.16-1.22-3.8201-2.72C1720.01,950.69,1720.23,947.34,1720.27,944.01z"/>
	<path fill="#4591C6" stroke="#4591C6" stroke-width="0.0938" d="M1198.62,946.61c1.16-2.21,3.91-1.02,5.89-1.23
		c0.04,2.29,0.08,4.58,0.13,6.88c-1.6,1.39-3.21,4.53-5.71,2.95C1196.41,953.21,1197.02,949.01,1198.62,946.61z"/>
	<path fill="#4591C6" stroke="#4591C6" stroke-width="0.0938" d="M1519.29,953.87c-0.4301-3.34,0.9399-6.49,3.98-8.07
		C1525.92,948.82,1523.72,954.76,1519.29,953.87z"/>
	<path fill="#4591C6" stroke="#4591C6" stroke-width="0.0938" d="M1725.77,948.28c1.15,0.59,2.3099,1.1899,3.48,1.81
		c0.02,3.34-0.08,6.68,0.05,10.03c-1.2101-0.61-2.49-1.07-3.37-2.07C1725.49,954.8,1725.73,951.53,1725.77,948.28z"/>
	<path fill="#4591C6" stroke="#4591C6" stroke-width="0.0938" d="M1731.03,952.21c1.4,0.6,2.6599,1.45,3.87,2.44
		c-0.12,3.11-0.13,6.24-0.2001,9.37c-1.1599-0.71-2.2899-1.41-3.3999-2.11C1731.4301,958.67,1731.51,955.42,1731.03,952.21z"/>
	<path fill="#4591C6" stroke="#4591C6" stroke-width="0.0938" d="M1232.8,956.8c1.0599-2.16,3.73-1.13,5.62-1.17
		c0.45,3.48,0.34,7.13-2.17,9.84c-1.33,0.05-2.65,0.1201-3.9399,0.21C1231.0601,962.84,1231.13,959.45,1232.8,956.8z"/>
	<path fill="#4591C6" stroke="#4591C6" stroke-width="0.0938" d="M1538.36,961.17c0.78-2.7,1.65-6.66,5.36-6.04
		c-0.0699,1.67-0.12,3.36-0.15,5.05C1542.1801,961.64,1539.76,963.96,1538.36,961.17z"/>
	<path fill="#4591C6" stroke="#4591C6" stroke-width="0.0938" d="M1736.98,966.03c-0.34-3.29-0.64-6.71,0.6801-9.83
		c3.7799,2.4,2.33,7.24,2.48,10.96C1739.05,966.81,1738,966.44,1736.98,966.03z"/>
	<path fill="#4591C6" stroke="#4591C6" stroke-width="0.0938" d="M1741.71,959.69c0.86,0.88,2.87,1.04,3.02,2.52
		c0.12,2.93,0,5.87-0.0599,8.81c-1.11-0.87-2.2001-1.75-3.26-2.62C1741.5,965.49,1741.5601,962.59,1741.71,959.69z"/>
	<path fill="#4591C6" stroke="#4591C6" stroke-width="0.0938" d="M1558.9399,971.05c-3.08-2.94-0.3799-6.92,2.28-8.94
		C1563.61,965.24,1561.8,969.01,1558.9399,971.05z"/>
	<path fill="#4591C6" stroke="#4591C6" stroke-width="0.0938" d="M1746.64,972.21c0.0499-2.89,0.29-5.77,0.88-8.59
		c4.03,1.9,2.2999,7.01,2.48,10.53C1748.86,973.5,1747.73,972.84,1746.64,972.21z"/>
	<path fill="#4591C6" stroke="#4591C6" stroke-width="0.0938" d="M1264.24,974.46c-0.14-3.22-0.35-8.38,3.7-9.07
		c2.8201-0.87,2.9801,2.72,2.77,4.57c0.4501,2.71-1.88,4.33-3.59,5.95C1266.4,975.55,1264.96,974.82,1264.24,974.46z"/>
	<path fill="#4591C6" stroke="#4591C6" stroke-width="0.0938" d="M1751.37,967.01c0.92,0.34,1.86,0.7,2.8199,1.07
		c0.3,2.68,0.38,5.39,0.16,8.09c-0.12,0.22-0.34,0.67-0.46,0.89c-0.62-0.4-1.85-1.22-2.47-1.62
		C1751.36,972.62,1751.34,969.81,1751.37,967.01z"/>
	<path fill="#4591C6" stroke="#4591C6" stroke-width="0.0938" d="M1756.08,970.08c0.9501,0.65,1.9,1.31,2.88,1.99
		c-0.0599,2.68-0.12,5.37-0.23,8.06C1754.97,978.16,1756.59,973.48,1756.08,970.08z"/>
	<path fill="#4591C6" stroke="#4591C6" stroke-width="0.0938" d="M1575.27,977.48c0.0699-3.08,1.28-5.96,4.04-7.55
		c0.6399,2.62,0.6,5.4-0.8101,7.77C1577.4,977.62,1576.33,977.55,1575.27,977.48z"/>
	<path fill="#4591C6" stroke="#4591C6" stroke-width="0.0938" d="M1761.1899,981.84c-0.2599-2.71-0.1899-5.42,0.2001-8.09
		c0.5699,0.41,1.71,1.24,2.28,1.66c0.0299,2.76,0.01,5.53-0.04,8.31c-0.8199-0.46-1.62-0.91-2.4-1.34L1761.1899,981.84z"/>
	<path fill="#4591C6" stroke="#4591C6" stroke-width="0.0938" d="M1297.3199,975.47c1.3601-1.6899,4.62-0.91,4.3401,1.54
		c0.6599,3.17-0.89,8.39-4.9401,7.58C1294.37,982.38,1294.87,977.53,1297.3199,975.47z"/>
	<path fill="#4591C6" stroke="#4591C6" stroke-width="0.0938" d="M1594.6899,978.18c1.1101,0.22,2.2001,0.6,3.0701,1.44
		c-0.85,1.62-1.62,3.29-2.38,4.95c-1.01-0.01-2,0-2.97,0.03c0.0399-0.92,0.09-1.83,0.15-2.73
		C1593.26,980.64,1593.97,979.4,1594.6899,978.18z"/>
	<path fill="#4591C6" stroke="#4591C6" stroke-width="0.0938" d="M1326.58,984.47c1.03-0.06,3.1001-0.18,4.14-0.24
		c0.02,2.36,0,4.74-0.01,7.12c-1.5,1.04-3.1,3.23-5.1499,2.04C1324.87,990.36,1325.38,987.27,1326.58,984.47z"/>
	<path fill="#4591C6" stroke="#4591C6" stroke-width="0.0938" d="M1608.3,991.66c0.5599-2.65,1.49-7.18,5.22-6.16
		C1613.98,988.71,1612.0601,992.7,1608.3,991.66z"/>
	<path fill="#4591C6" stroke="#4591C6" stroke-width="0.0938" d="M1626.21,992.34c0.67,0,2-0.02,2.66-0.03
		c-0.33,1.81-0.75,3.6-1.25,5.37c-1.1899-0.03-2.36-0.04-3.52-0.04C1624.63,995.81,1625.3199,994.03,1626.21,992.34z"/>
	<path fill="#4591C6" stroke="#4591C6" stroke-width="0.0938" d="M1353.49,1001.19c-0.67-3.67,0.38-7.12,3.51-9.28
		c4.55,2.4,2.39,8.22-0.79,10.81C1355.53,1002.34,1354.17,1001.57,1353.49,1001.19z"/>
	<path fill="#4591C6" stroke="#4591C6" stroke-width="0.0938" d="M1641.87,997.77c0.41-0.06,1.23-0.17,1.64-0.23
		c0.4399,2.76-0.38,5.32-2.2,7.42C1637.79,1003.77,1640.7,999.8,1641.87,997.77z"/>
	<path fill="#4591C6" stroke="#4591C6" stroke-width="0.0938" d="M1381.89,1001.63c0.9399-0.11,2.8199-0.33,3.76-0.44
		c1.72,3.35,0.5699,7.44-2.5601,9.48c-0.6899-0.35-2.08-1.06-2.77-1.42C1380.25,1006.6,1380.6801,1004,1381.89,1001.63z"/>
	<path fill="#4591C6" stroke="#4591C6" stroke-width="0.0938" d="M1653.74,1006.1c1.1901-0.95,2.41-1.89,3.64-2.8199
		c0.64,3.1899-0.03,6.33-2.55,8.52C1653.1801,1010.33,1653.79,1008.01,1653.74,1006.1z"/>
	<path fill="#4591C6" stroke="#4591C6" stroke-width="0.0938" d="M1406.42,1017.47c-0.64-3.5699,0.38-9.12,5.22-8.3199
		c0.2,2.9,0.33,5.95-1.29,8.54C1409.37,1017.64,1407.41,1017.53,1406.42,1017.47z"/>
	<path fill="#4591C6" stroke="#4591C6" stroke-width="0.0938" d="M1668.72,1010.55c0.97-0.01,1.9601,0,2.97,0.03
		c-0.5399,1.58-1.0299,3.2-1.5099,4.82c-1.02,0.1-2.02,0.21-3,0.31C1667.62,1013.97,1668.13,1012.24,1668.72,1010.55z"/>
	<path fill="#4591C6" stroke="#4591C6" stroke-width="0.0938" d="M1679.98,1019.26c1.09-1.5,2.14-3.03,3.04-4.65
		c0.4,0.57,0.84,1.15,1.2999,1.74c0.28,2.73-1.5,5.83-4.6,5.2401C1679.79,1021.01,1679.92,1019.84,1679.98,1019.26z"/>
	<path fill="#4591C6" stroke="#4591C6" stroke-width="0.0938" d="M1432.47,1017.34c1.38,0.02,2.77,0.05,4.1801,0.11
		c0.3099,3.43-0.79,6.71-3.76,8.67C1430.3101,1023.77,1431.4301,1020.13,1432.47,1017.34z"/>
	<path fill="#4591C6" stroke="#4591C6" stroke-width="0.0938" d="M1693.67,1021.74c0.5199-0.13,1.5599-0.39,2.08-0.52
		c-0.12,1.69-0.21,3.41-0.3,5.13c-0.5399,0.0801-1.63,0.26-2.1799,0.34C1693.38,1025.03,1693.52,1023.38,1693.67,1021.74z"/>
	<path fill="#4591C6" stroke="#4591C6" stroke-width="0.0938" d="M1455.83,1024.62c1.3101-0.1801,2.62-0.35,3.9801-0.48
		c-0.0901,2.03-0.1901,4.0699-0.3,6.12c-0.76,0.74-1.51,1.49-2.24,2.26c-0.41,0.01-1.25,0.03-1.67,0.04
		C1453.83,1030.05,1454.9301,1027.21,1455.83,1024.62z"/>
	<path fill="#4591C6" stroke="#4591C6" stroke-width="0.0938" d="M1703.64,1032.13c0.75-2.55,1.35-6.41,4.9299-5.8199
		c-0.3999,2.1299-1.3199,4.1-2.4199,5.96C1705.29,1032.21,1704.45,1032.16,1703.64,1032.13z"/>
	<path fill="#4591C6" stroke="#4591C6" stroke-width="0.0938" d="M1718.3101,1031.53c0.2699-0.3301,0.8099-1.01,1.08-1.3401
		c0.1799,2.76,0.27,6.9301-3.67,6.5c0.02-1.3099,0.0601-2.61,0.12-3.8799C1716.65,1032.38,1717.47,1031.95,1718.3101,1031.53z"/>
	<path fill="#4591C6" stroke="#4591C6" stroke-width="0.0938" d="M1477.33,1038.62c-0.25-3.4399,0.42-6.98,3.8101-8.62
		c1.89,2.59,1.08,5.65,0.14,8.4301C1479.95,1038.46,1478.63,1038.52,1477.33,1038.62z"/>
	<path fill="#4591C6" stroke="#4591C6" stroke-width="0.0938" d="M1727.14,1040.84c0.22-2.2799,0.6-4.5499,1.9-6.48
		c0.77,1.46,1.14,3.05,1.3099,4.71C1729.25,1039.64,1728.2,1040.26,1727.14,1040.84z"/>
	<path fill="#4591C6" stroke="#4591C6" stroke-width="0.0938" d="M1499.73,1045.95c-2.34-2.96-0.45-9.1699,3.74-8.3899
		C1504.21,1040.74,1503.48,1045.13,1499.73,1045.95z"/>
	<path fill="#4591C6" stroke="#4591C6" stroke-width="0.0938" d="M1737.88,1040.52c0.87-0.05,1.77-0.09,2.6899-0.12
		c-0.47,1.64-0.9299,3.28-1.35,4.95c-0.9299-0.02-1.84-0.02-2.72,0C1736.99,1043.75,1737.41,1042.12,1737.88,1040.52z"/>
	<path fill="#4591C6" stroke="#4591C6" stroke-width="0.0938" d="M754.31,1043.78c0.82-0.8301,1.64-1.65,2.46-2.4601
		c2.7,0.02,6.4-0.5699,7.59,2.6001c0.58,3.39,0.96,8.0299-2.71,9.86c-2.47,1.83-5.38,0.25-7.35-1.48
		C754.2,1049.45,754.18,1046.61,754.31,1043.78z"/>
	<path fill="#4591C6" stroke="#4591C6" stroke-width="0.0938" d="M1519.4301,1051.53c-0.1001-3.28,0.1599-7.15,3.7699-8.4501
		C1525.15,1045.96,1524.05,1052.77,1519.4301,1051.53z"/>
	<path fill="#4591C6" stroke="#4591C6" stroke-width="0.0938" d="M1748.64,1044.39c0.41,0.04,1.21,0.12,1.61,0.16
		c-0.08,1.0699-0.14,2.1599-0.17,3.26c-1.0699,0.8799-2.09,1.7799-3.09,2.73c-0.27-1.02-0.66-1.9401-1.1899-2.78
		c0.36-0.0601,1.1-0.1801,1.46-0.23C1747.7,1046.47,1748.16,1045.42,1748.64,1044.39z"/>
	<path fill="#4591C6" stroke="#4591C6" stroke-width="0.0938" d="M810.71,1048.4301c1.66-0.03,3.35-0.28,5.0099,0.1
		c4.73,3.1,3.48,12.25-2.5099,13.08c-2.05,0.47-3.45-1.0599-4.82-2.23c-0.26-2.13-1.03-4.27-0.66-6.41
		C808.48,1051.3,809.64,1049.88,810.71,1048.4301z"/>
	<path fill="#4591C6" stroke="#4591C6" stroke-width="0.0938" d="M1540.42,1050.27c1.11,0.0599,2.24,0.12,3.39,0.1799
		c0.0499,2.62-0.78,5.0601-2.26,7.2001c-0.55-0.03-1.65-0.0801-2.1901-0.11C1539.26,1055.0601,1539.4399,1052.5699,1540.42,1050.27z
		"/>
	<path fill="#4591C6" stroke="#4591C6" stroke-width="0.0938" d="M861.94,1055.6899c2.34,0.04,5.95-1.37,6.91,1.7101
		c2.2,3.73,0.46,11.0599-4.79,10.39c-3.89,0.5-5.8-4.25-5.29-7.49C859.86,1058.79,860.91,1057.24,861.94,1055.6899z"/>
	<path fill="#4591C6" stroke="#4591C6" stroke-width="0.0938" d="M1558.23,1063.02c-1.45-2.7001,0.39-8.65,4.11-6.23
		C1562.54,1059.5601,1561.49,1062.95,1558.23,1063.02z"/>
	<path fill="#4591C6" stroke="#4591C6" stroke-width="0.0938" d="M1576.74,1069.15c-1.92-2.75-0.92-7.72,2.89-8.05
		c0,1.76-0.01,3.54-0.03,5.3201C1578.63,1067.3199,1577.6801,1068.23,1576.74,1069.15z"/>
	<path fill="#4591C6" stroke="#4591C6" stroke-width="0.0938" d="M911.57,1062.16c1.97,0.38,4.77-0.7101,5.98,1.45
		c2.21,3.51,1.13,8.6-2.36,10.9301c-0.88,0.01-2.63,0.02-3.51,0.0299c-0.79-0.7899-1.58-1.5699-2.36-2.3199
		C909.21,1068.74,908.68,1064.76,911.57,1062.16z"/>
	<path fill="#4591C6" stroke="#4591C6" stroke-width="0.0938" d="M1594.51,1066.5c0.52-0.02,1.58-0.0601,2.11-0.08
		c0.08,2.4199-0.11,4.87-1.29,7.0399c-0.49,0.04-1.48,0.12-1.98,0.16C1593.3,1071.1801,1593.28,1068.6801,1594.51,1066.5z"/>
	<path fill="#4591C6" stroke="#4591C6" stroke-width="0.0938" d="M956.6,1070.92c0.75-0.8501,1.52-1.6901,2.3-2.52
		c1.45,0.02,2.9,0.0599,4.37,0.15c1.63,2.6,3.39,5.8199,1.4,8.7799c-0.85,3.3301-5.6,4.63-7.63,1.66
		C954.92,1076.72,955.82,1073.54,956.6,1070.92z"/>
	<path fill="#4591C6" stroke="#4591C6" stroke-width="0.0938" d="M1610.64,1071.61c0.87,0.01,1.77,0.04,2.6899,0.08
		c-0.01,0.4701-0.0199,1.41-0.0299,1.88l1.2-0.3899c-1.48,1.84-2.48,3.98-3.37,6.1599c-0.91-0.3099-1.79-0.58-2.66-0.8199
		c-0.09-1.51-0.0699-2.99-0.14-4.47c0.16,1.26,0.4801,2.49,0.9701,3.71C1609.58,1075.67,1609.8101,1073.5601,1610.64,1071.61z"/>
	<path fill="#4591C6" stroke="#4591C6" stroke-width="0.0938" d="M1001.5,1084.14c-0.43-3.4-0.72-7.36,2.16-9.78
		c0.95-0.04,2.86-0.12,3.82-0.16c3.29,2.99,3.38,9.3101-0.47,11.9C1005.03,1087.29,1002.39,1086.13,1001.5,1084.14z"/>
	<path fill="#4591C6" stroke="#4591C6" stroke-width="0.0938" d="M1627.04,1075.74c0.75,0.4301,1.5299,0.88,2.33,1.33
		c-0.72,2.0801-1.41,4.1801-2.1801,6.25c-0.8999,0.01-1.7799,0.03-2.6299,0.0701C1624.25,1080.52,1625.23,1077.92,1627.04,1075.74z"
		/>
	<path fill="#4591C6" stroke="#4591C6" stroke-width="0.0938" d="M1046.59,1080.26c0.9701,0,2.9-0.01,3.86-0.01
		c2.26,2.73,3.1001,6.9399,0.77,9.9c-1.62,2.8099-6.5599,1.99-7.09-1.28C1042.59,1085.6801,1044.5699,1082.61,1046.59,1080.26z"/>
	<path fill="#4591C6" stroke="#4591C6" stroke-width="0.0938" d="M1640.63,1081.48c1.01-0.01,2.04-0.02,3.09-0.01
		c-0.27,1.99-0.9,3.91-1.59,5.8c-0.5,0.15-1.5,0.4299-1.99,0.58C1639.38,1085.71,1640.17,1083.5601,1640.63,1081.48z"/>
	<path fill="#4591C6" stroke="#4591C6" stroke-width="0.0938" d="M1654.76,1084.78c0.84-0.01,1.6899-0.02,2.5599-0.04
		c0.4701,2.87,0.1801,6.25-3,7.35C1654.28,1089.64,1654.47,1087.2,1654.76,1084.78z"/>
	<path fill="#4591C6" stroke="#4591C6" stroke-width="0.0938" d="M1086.53,1096.83c-2.3201-3.85-1.73-9.4199,2.4199-11.7699
		c1.7201,1.0099,3.29,2.2699,4.6901,3.72c0.13,2.85-0.72,5.53-2.4,7.83C1089.66,1096.66,1088.09,1096.73,1086.53,1096.83z"/>
	<path fill="#4591C6" stroke="#4591C6" stroke-width="0.0938" d="M1666.9,1094.41c0.4199-2.61,1.99-4.63,4.21-5.9601
		c0.21,1.29-0.41,3.0901,1.25,3.7001c-0.4399,0.11-1.33,0.3099-1.77,0.41c-0.5699,1.6699-1.09,3.34-1.59,5.0399
		c-0.1899-0.63-0.36-1.24-0.5-1.83C1667.9399,1095.3,1667.41,1094.85,1666.9,1094.41z"/>
	<path fill="#4591C6" stroke="#4591C6" stroke-width="0.0938" d="M1126.58,1091.21c1.53,0.13,3.0801,0.27,4.65,0.42
		c1.3,2.8099,0.9301,5.84,0.21,8.76c-1.36,0.99-2.6799,2.49-4.5499,2.03c-0.91-0.67-1.78-1.36-2.61-2.0701
		C1124.13,1097.1,1124.16,1093.6801,1126.58,1091.21z"/>
	<path fill="#4591C6" stroke="#4591C6" stroke-width="0.0938" d="M1680.64,1100.5699c-0.67-3.1899,0.4399-6.0499,2.74-8.2699
		c0.1,2.0199,0.13,4.0599,0.1,6.1C1682.5,1099.1,1681.58,1099.84,1680.64,1100.5699z"/>
	<path fill="#4591C6" stroke="#4591C6" stroke-width="0.0938" d="M1163.5699,1096.42c1.03-0.0801,3.0901-0.24,4.12-0.3301
		c1.91,3.98,1.7101,9.64-2.7,11.85C1160.36,1105.58,1161.24,1100.15,1163.5699,1096.42z"/>
	<path fill="#4591C6" stroke="#4591C6" stroke-width="0.0938" d="M1694.83,1097.4399c0.36,0.04,1.0801,0.1201,1.4401,0.16
		c-0.0701,1.8301-0.11,3.6801-0.14,5.54c-1.2,0.1-2.39,0.2-3.53,0.34c0.0601-1.13,0.13-2.24,0.27-3.33
		C1693.62,1099.3199,1694.27,1098.41,1694.83,1097.4399z"/>
	<path fill="#4591C6" stroke="#4591C6" stroke-width="0.0938" d="M1703.49,1105.87c1.49-2.01,2.5701-4.27,3.66-6.51
		c0.84,2.58,1.26,5.34-0.03,7.88c-0.8199,0-1.61,0.01-2.36,0.05c-0.02-0.4601-0.05-1.38-0.0601-1.8401L1703.49,1105.87z"/>
	<path fill="#4591C6" stroke="#4591C6" stroke-width="0.0938" d="M1198.47,1102.71c0.75-2.08,3.3101-1.1499,4.97-1.46
		c1.8101,3.39,1.4301,7.58-1.09,10.51c-0.9199-0.04-2.77-0.12-3.6899-0.16C1197.28,1108.84,1196.9301,1105.47,1198.47,1102.71z"/>
	<path fill="#4591C6" stroke="#4591C6" stroke-width="0.0938" d="M1716.67,1104.72c0.9299-0.1,1.8999-0.1799,2.89-0.25
		c-0.1901,1.0701-0.3501,2.15-0.4901,3.25c-0.8999,1.3-1.6699,2.6901-2.4099,4.0901
		C1716.4399,1109.4399,1716.42,1107.0699,1716.67,1104.72z"/>
	<path fill="#4591C6" stroke="#4591C6" stroke-width="0.0938" d="M1726.86,1110.29c1.01-1.2201,1.76-2.62,2.4401-4.05
		c0.24,2.46,0.6699,5.09-1.12,7.12c-0.41,0.03-1.2301,0.09-1.63,0.12C1726.62,1112.4,1726.73,1111.34,1726.86,1110.29z"/>
	<path fill="#4591C6" stroke="#4591C6" stroke-width="0.0938" d="M1232.49,1106.46c1.72-0.12,3.47-0.21,5.22-0.27
		c0,3,0.4701,6.14-0.48,9.0601c-1.59,0.41-3.2,0.55-4.83,0.42C1232.17,1112.59,1232.1899,1109.51,1232.49,1106.46z"/>
	<path fill="#4591C6" stroke="#4591C6" stroke-width="0.0938" d="M1738.97,1109.17c0.3301,1.2799,0.77,2.5499,1.05,3.87
		c1.02,2.39-1.98,3.1499-3.28,4.46c0.04-1.09,0.12-2.17,0.23-3.24C1738.12,1112.77,1738.7,1111.01,1738.97,1109.17z"/>
	<path fill="#4591C6" stroke="#4591C6" stroke-width="0.0938" d="M1264.29,1112.73c1.2999-1.6899,3.0299-2.88,5.2799-2.6799
		c1.54,3.1,1.25,6.6899-0.1599,9.7899c-1.66,0.1-3.23-0.13-4.7001-0.6799C1264.0699,1117.0699,1264.39,1114.86,1264.29,1112.73z"/>
	<path fill="#4591C6" stroke="#4591C6" stroke-width="0.0938" d="M1747.75,1114.63c0.79-0.0601,1.61-0.11,2.45-0.14
		c-0.0399,1.54-0.0499,3.1-0.0299,4.67c-0.9501,0.09-1.87,0.2-2.76,0.33C1747.5,1117.86,1747.63,1116.24,1747.75,1114.63z"/>
	<path fill="#4591C6" stroke="#4591C6" stroke-width="0.0938" d="M1296.51,1115.72c0.51-1.9,3.5599-2.0399,4.34-0.4
		c1.6,2.4,0.5601,5.42-0.4299,7.87c-0.64,0.41-1.9301,1.2301-2.5801,1.64C1294.77,1122.85,1295,1118.6,1296.51,1115.72z"/>
	<path fill="#4591C6" stroke="#4591C6" stroke-width="0.0938" d="M1327.83,1118.53c0.67-0.05,2.01-0.14,2.6801-0.1901
		c0.16,3.1801,0.53,6.53-0.96,9.49c-1.01-0.1-3.02-0.2899-4.02-0.39C1325.71,1124.48,1324.13,1119.85,1327.83,1118.53z"/>
	<path fill="#4591C6" stroke="#4591C6" stroke-width="0.0938" d="M1354.63,1131.49c-2.26-3.28-1.34-10.4,3.9399-9.22
		c0.0701,2.34,0.15,4.6899,0.2401,7.0499C1357.9,1130.84,1356.61,1132.3,1354.63,1131.49z"/>
	<path fill="#4591C6" stroke="#4591C6" stroke-width="0.0938" d="M1380.42,1133.15c-0.1901-2.74,0.5499-5.48,2.48-7.49
		c1.5699-0.89,2.8199,1,3.1799,2.2999c0.8,3.05-0.71,6.13-3.0199,8.0901C1382.17,1135.0601,1381.29,1134.1,1380.42,1133.15z"/>
	<path fill="#4591C6" stroke="#4591C6" stroke-width="0.0938" d="M1407.8101,1138.84c-1.9501-3-1.8101-7.0399,0.9099-9.5299
		c4.25-0.64,2.65,4.4299,2.98,7.0199C1410.67,1137.5699,1409.45,1138.59,1407.8101,1138.84z"/>
	<path fill="#4591C6" stroke="#4591C6" stroke-width="0.0938" d="M1432.17,1134.12c0.74-1.67,4-1.35,4.13,0.78
		c0.33,2.53-0.05,7.08-3.55,6.87C1430.6801,1139.85,1431.24,1136.4399,1432.17,1134.12z"/>
	<path fill="#4591C6" stroke="#4591C6" stroke-width="0.0938" d="M1456.6801,1135.75c0.5499,0.01,1.6399,0.02,2.1899,0.03
		c0.4401,0.45,0.9,0.9199,1.38,1.4c0.27,2.8899-0.66,5.6-2.13,8.0599c-0.73-0.04-1.4399-0.05-2.11-0.04
		c-0.6801-1.1899-1.38-2.38-2.03-3.5299C1454.58,1139.5601,1455.39,1137.53,1456.6801,1135.75z"/>
	<path fill="#4591C6" stroke="#4591C6" stroke-width="0.0938" d="M1478.52,1139.48c1-0.0699,2.01-0.13,3.04-0.1699
		c1.0699,3.0599,1.0199,8.34-3.2101,8.6C1477.1899,1145.16,1477.45,1142.1899,1478.52,1139.48z"/>
	<path fill="#4591C6" stroke="#4591C6" stroke-width="0.0938" d="M1501,1151.05c-2.3-2.2001-2.28-6.4301-0.3199-8.8
		C1505.75,1142.1899,1503.35,1148.9,1501,1151.05z"/>
	<path fill="#4591C6" stroke="#4591C6" stroke-width="0.0938" d="M1520.55,1145.39c1.0299-0.02,2.0599-0.03,3.12-0.03
		c-0.02,2.03,0.1599,4.1-0.2001,6.13c-0.49,1.15-2.03,0.9401-2.99,1.4C1519.35,1150.4399,1519.8101,1147.85,1520.55,1145.39z"/>
	<path fill="#4591C6" stroke="#4591C6" stroke-width="0.0938" d="M1539.8101,1148.9301c0.9299-1.12,2.58-0.27,3.85-0.4501
		c-0.12,2.11-0.5,4.21-1.27,6.2001c-1.04-0.04-2.05-0.0801-3.05-0.1001C1539.42,1152.6801,1539.45,1150.78,1539.8101,1148.9301z"/>
	<path fill="#4591C6" stroke="#4591C6" stroke-width="0.0938" d="M1558.42,1150.48c1.0599-0.0699,2.13-0.13,3.22-0.1699
		c0,2.36-0.03,4.74-0.12,7.12c-1.05,0.0399-2.0801,0.09-3.1,0.1499C1558.35,1155.2,1558.35,1152.83,1558.42,1150.48z"/>
	<path fill="#4591C6" stroke="#4591C6" stroke-width="0.0938" d="M1715.42,1171.23c1.0599-0.0699,2.13-0.13,3.22-0.1699
		c0,2.36-0.03,4.74-0.12,7.12c-1.05,0.0399-2.0801,0.09-3.1,0.1499C1715.35,1175.95,1715.35,1173.58,1715.42,1171.23z"/>
	<path fill="#4591C6" stroke="#4591C6" stroke-width="0.0938" d="M1727.17,1172.23c1.0599-0.0699,2.13-0.13,3.22-0.1699
		c0,2.36-0.03,4.74-0.12,7.12c-1.05,0.0399-2.0801,0.09-3.1,0.1499C1727.1,1176.95,1727.1,1174.58,1727.17,1172.23z"/>
	<path fill="#4591C6" stroke="#4591C6" stroke-width="0.0938" d="M1748.42,1175.73c1.0599-0.0699,2.13-0.13,3.22-0.1699
		c0,2.36-0.03,4.74-0.12,7.12c-1.05,0.0399-2.0801,0.09-3.1,0.1499C1748.35,1180.45,1748.35,1178.08,1748.42,1175.73z"/>
	<path fill="#4591C6" stroke="#4591C6" stroke-width="0.0938" d="M1758.67,1176.48c1.0599-0.0699,2.13-0.13,3.22-0.1699
		c0,2.36-0.03,4.74-0.12,7.12c-1.05,0.0399-2.0801,0.09-3.1,0.1499C1758.6,1181.2,1758.6,1178.83,1758.67,1176.48z"/>
	<path fill="#4591C6" stroke="#4591C6" stroke-width="0.0938" d="M1576.65,1152.59c0.95-0.02,1.9199-0.0299,2.9-0.02
		c0.01,1.9601,0.0299,3.9301,0.0699,5.92c-1.1801,0.11-2.33,0.24-3.48,0.37C1576.27,1156.76,1576.45,1154.67,1576.65,1152.59z"/>
	<path fill="#4591C6" stroke="#4591C6" stroke-width="0.0938" d="M1593.75,1154.74c0.86-0.04,1.74-0.08,2.63-0.11
		c0.1801,2.64,0.24,5.36-0.9301,7.8099c-0.47,0-1.4199,0.01-1.8899,0.01C1593.41,1159.86,1593.47,1157.29,1593.75,1154.74z"/>
	<path fill="#4591C6" stroke="#4591C6" stroke-width="0.0938" d="M1609.65,1164.36c0.1699-2.3099-1.29-8.09,2.76-6.71
		c0.2899,2.23,0.0399,4.48-0.12,6.73C1611.39,1164.35,1610.51,1164.34,1609.65,1164.36z"/>
	<path fill="#4591C6" stroke="#4591C6" stroke-width="0.0938" d="M1625.3101,1165.62c-0.14-2.67,0.2999-5.3,1.83-7.52
		c1.01,2.4401,1.53,5.0601,0.4299,7.59C1627,1165.67,1625.87,1165.64,1625.3101,1165.62z"/>
	<path fill="#4591C6" stroke="#4591C6" stroke-width="0.0938" d="M1639.8,1162.55c0.9399-0.12,1.9099-0.2201,2.8999-0.3101
		c-0.09,1.78-0.1499,3.58-0.1899,5.38c-0.96-0.04-1.89-0.0699-2.8-0.08C1639.73,1165.87,1639.75,1164.2,1639.8,1162.55z"/>
	<path fill="#4591C6" stroke="#4591C6" stroke-width="0.0938" d="M1654.76,1164.17c0.26-0.9701,1.3199-1.9501,2.3099-1.1901
		c0.51,1.9501,0.29,3.99,0.3101,6.01c-1.01,0.49-1.95,1.04-2.87,1.63C1654.49,1168.46,1654.28,1166.27,1654.76,1164.17z"/>
	<path fill="#4591C6" stroke="#4591C6" stroke-width="0.0938" d="M1668.6899,1164.71c3.7101-0.0499,2.1001,4.5901,1.4401,6.74
		c-0.84,0-1.65,0.01-2.4401,0.04C1667.87,1169.23,1667.15,1166.61,1668.6899,1164.71z"/>
	<path fill="#4591C6" stroke="#4591C6" stroke-width="0.0938" d="M1681.52,1167.51c0.5,0,1.52,0,2.02,0.01
		c-0.04,1.61-0.0601,3.24-0.0701,4.89c-0.5399,0.08-1.63,0.26-2.1699,0.34C1681.35,1170.99,1681.42,1169.24,1681.52,1167.51z"/>
	<path fill="#4591C6" stroke="#4591C6" stroke-width="0.0938" d="M1693.88,1175.71c-0.5699-2.83-0.5-5.73,1.01-8.25
		c0.4,0.5801,0.8199,1.17,1.27,1.78c-0.03,1.1901-0.04,2.4-0.02,3.63C1695.36,1173.79,1694.61,1174.74,1693.88,1175.71z"/>
	<path fill="#4591C6" stroke="#4591C6" stroke-width="0.0938" d="M1704.7,1171.9399c1.4301-0.3199,1.9601-1.6299,2.5901-2.7899
		c0.1699,2.1899,0.22,4.4,0.0299,6.62c-0.49,0.45-0.95,0.9299-1.37,1.4399c-0.3999-0.5299-0.7799-1.0399-1.12-1.5299
		C1704.75,1174.41,1704.7,1173.16,1704.7,1171.9399z"/>
	<path fill="#4591C6" stroke="#4591C6" stroke-width="0.0938" d="M1739,1173.23c0.95,2.6,1.4301,5.41,0.09,8
		c-0.2799-0.01-0.86-0.01-1.14-0.01c-0.1899-0.88-0.46-1.6899-0.8099-2.4399C1737.91,1176.99,1738.49,1175.11,1739,1173.23z"/>
	<path fill="#1A124E" stroke="#1A124E" stroke-width="0.0938" d="M0,1168.28c9.98-0.42,19.96-0.6801,29.96-0.54
		c32.01,0.02,64.02-0.02,96.03,0.03c8.36-0.1801,16.71,0.5699,25.06-0.02c8.3,0.16,16.61,0.54,24.9-0.01
		c27.34,0.28,54.69-0.35,82.01,0.37c13.65-0.53,27.34-0.6,40.97,0.14c9.35-0.7,18.72-0.4399,28.08-0.4
		c8.32,1.05,16.66-0.8199,25,0.1c6.99,0.8201,13.98-0.6399,20.99-0.1799c7.98,0.49,15.98-0.05,23.96,0.2
		c7.34,0.8,14.68-0.46,22.03-0.08c13.01,0.86,26.04-0.1,39.04,0.1c4.33,0.49,8.67,0.16,13-0.08c16.17,0.71,32.37-0.17,48.54,0.35
		c0.34,19.48-0.44,38.99,0.38,58.46c203.35,0.22,406.7-0.0699,610.04,0.0801c109.01-0.0701,218,0.1599,327-0.01
		c107.26-0.0601,214.53,0.1,321.8-0.0801c2.1699-5.89,3.73-11.97,5.4199-18c4.15-13.58,8.1901-27.1899,11.53-40.99
		c35.77,0.05,71.5601-0.02,107.33,0.0601c5.62,0.63,11.28,0.34,16.9301,0.4V1473H0V1168.28z"/>
	<path fill="#BD2525" d="M1769.25,1186.1699c-6.45,0-6.45-10,0-10S1775.7,1186.1699,1769.25,1186.1699z"/>
</g>
</svg>
