<?xml version="1.0" encoding="iso-8859-1"?>
<!-- Generator: Adobe Illustrator 17.1.0, SVG Export Plug-In . SVG Version: 6.00 Build 0)  -->
<!DOCTYPE svg PUBLIC "-//W3C//DTD SVG 1.1//EN" "http://www.w3.org/Graphics/SVG/1.1/DTD/svg11.dtd">
<svg version="1.1" id="Capa_1" xmlns="http://www.w3.org/2000/svg" xmlns:xlink="http://www.w3.org/1999/xlink" x="0px" y="0px"
	 viewBox="0 0 490 490" style="enable-background:new 0 0 490 490;" xml:space="preserve">
<g>
	<path style="fill:#000100;" d="M298.294,112.82h39.811c1.594,0,2.886-1.291,2.886-2.885v-7.697c0-1.594-1.292-2.885-2.886-2.885
		h-39.811c-1.594,0-2.887,1.291-2.887,2.885v7.697C295.407,111.529,296.7,112.82,298.294,112.82z"/>
	<path style="fill:#000100;" d="M94.469,193.592L94.469,193.592l317.311-0.006c0.571,0,1.095-0.318,1.357-0.826
		c0.262-0.508,0.22-1.119-0.109-1.586l-20.396-30.988c-0.287-0.406-0.753-0.646-1.25-0.646c0,0,0,0-0.001,0h-50.39v-32.775
		c0-1.594-1.292-2.887-2.886-2.887h-39.811c-1.594,0-2.887,1.293-2.887,2.887v32.775h-47.521v-34.006
		c0-0.914-0.742-1.656-1.657-1.656h-43.146c-0.366,0-0.722,0.121-1.012,0.344l-45.816,35.318H94.468
		c-0.838,0.002-1.52,0.676-1.529,1.512v30.994c-0.004,0.408,0.154,0.803,0.442,1.094C93.669,193.428,94.06,193.592,94.469,193.592z
		 M199.822,180.066c0,1.326-1.075,2.402-2.401,2.402h-12.784c-1.325,0-2.4-1.076-2.4-2.402v-7.002c0-1.326,1.075-2.4,2.4-2.4h12.784
		c1.326,0,2.401,1.074,2.401,2.4V180.066z M241.218,180.066c0,1.326-1.075,2.402-2.4,2.402h-12.784
		c-1.326,0-2.401-1.076-2.401-2.402v-7.002c0-1.326,1.075-2.4,2.401-2.4h12.784c1.325,0,2.4,1.074,2.4,2.4V180.066z M324.01,180.066
		c0,1.326-1.075,2.402-2.4,2.402h-12.784c-1.326,0-2.401-1.076-2.401-2.402v-7.002c0-1.326,1.075-2.4,2.401-2.4h12.784
		c1.325,0,2.4,1.074,2.4,2.4V180.066z M347.82,173.064c0-1.326,1.075-2.4,2.4-2.4h12.784c1.326,0,2.401,1.074,2.401,2.4v7.002
		c0,1.326-1.075,2.402-2.401,2.402h-12.784c-1.325,0-2.4-1.076-2.4-2.402V173.064z M265.028,173.064c0-1.326,1.075-2.4,2.4-2.4
		h12.784c1.325,0,2.401,1.074,2.401,2.4v7.002c0,1.326-1.076,2.402-2.401,2.402h-12.784c-1.325,0-2.4-1.076-2.4-2.402V173.064z
		 M140.84,173.064c0-1.326,1.076-2.4,2.401-2.4h12.784c1.325,0,2.4,1.074,2.4,2.4v7.002c0,1.326-1.075,2.402-2.4,2.402h-12.784
		c-1.325,0-2.401-1.076-2.401-2.402V173.064z"/>
	<path style="fill:#000100;" d="M75.062,245.025H438.2c0.002,0,0.003,0,0.005,0c0.845,0,1.529-0.684,1.529-1.529
		c0-0.361-0.125-0.691-0.334-0.953c0,0-14.605-23.258-19.645-30.9c-0.278-0.422-0.758-0.666-1.263-0.666H94.214
		c-0.514,0-0.992,0.256-1.275,0.684l-19.152,30.99c-0.312,0.471-0.34,1.072-0.073,1.57C73.98,244.717,74.497,245.025,75.062,245.025
		z M347.82,224.5c0-1.326,1.075-2.4,2.4-2.4h12.784c1.326,0,2.401,1.074,2.401,2.4v7.004c0,1.324-1.075,2.4-2.401,2.4h-12.784
		c-1.325,0-2.4-1.076-2.4-2.4V224.5z M306.424,224.5c0-1.326,1.075-2.4,2.401-2.4h12.784c1.325,0,2.4,1.074,2.4,2.4v7.004
		c0,1.324-1.075,2.4-2.4,2.4h-12.784c-1.326,0-2.401-1.076-2.401-2.4V224.5z M265.028,224.5c0-1.326,1.075-2.4,2.4-2.4h12.784
		c1.325,0,2.401,1.074,2.401,2.4v7.004c0,1.324-1.076,2.4-2.401,2.4h-12.784c-1.325,0-2.4-1.076-2.4-2.4V224.5z M223.632,224.5
		c0-1.326,1.075-2.4,2.401-2.4h12.784c1.325,0,2.4,1.074,2.4,2.4v7.004c0,1.324-1.075,2.4-2.4,2.4h-12.784
		c-1.326,0-2.401-1.076-2.401-2.4V224.5z M182.236,224.5c0-1.326,1.075-2.4,2.4-2.4h12.784c1.326,0,2.401,1.074,2.401,2.4v7.004
		c0,1.324-1.075,2.4-2.401,2.4h-12.784c-1.325,0-2.4-1.076-2.4-2.4V224.5z M140.84,224.5c0-1.326,1.076-2.4,2.401-2.4h12.784
		c1.325,0,2.4,1.074,2.4,2.4v7.004c0,1.324-1.075,2.4-2.4,2.4h-12.784c-1.325,0-2.401-1.076-2.401-2.4V224.5z"/>
	<path style="fill:#000100;" d="M465.556,293.74l-19.505-30.896c-0.285-0.42-0.759-0.672-1.267-0.672H70.415
		c-0.469,0-0.913,0.217-1.203,0.586c0,0-16.994,23.773-22.66,30.988c-0.361,0.461-0.428,1.088-0.172,1.615
		c0.256,0.525,0.79,0.859,1.375,0.859h416.598c0.002,0,0.004,0,0.004,0c0.846,0,1.53-0.684,1.53-1.529
		C465.887,294.332,465.764,294.002,465.556,293.74z M158.426,282.699c0,1.324-1.075,2.4-2.4,2.4h-12.784
		c-1.325,0-2.401-1.076-2.401-2.4v-7.004c0-1.326,1.076-2.4,2.401-2.4h12.784c1.325,0,2.4,1.074,2.4,2.4V282.699z M199.822,282.699
		c0,1.324-1.075,2.4-2.401,2.4h-12.784c-1.325,0-2.4-1.076-2.4-2.4v-7.004c0-1.326,1.075-2.4,2.4-2.4h12.784
		c1.326,0,2.401,1.074,2.401,2.4V282.699z M241.218,282.699c0,1.324-1.075,2.4-2.4,2.4h-12.784c-1.326,0-2.401-1.076-2.401-2.4
		v-7.004c0-1.326,1.075-2.4,2.401-2.4h12.784c1.325,0,2.4,1.074,2.4,2.4V282.699z M282.614,282.699c0,1.324-1.076,2.4-2.401,2.4
		h-12.784c-1.325,0-2.4-1.076-2.4-2.4v-7.004c0-1.326,1.075-2.4,2.4-2.4h12.784c1.325,0,2.401,1.074,2.401,2.4V282.699z
		 M324.01,282.699c0,1.324-1.075,2.4-2.4,2.4h-12.784c-1.326,0-2.401-1.076-2.401-2.4v-7.004c0-1.326,1.075-2.4,2.401-2.4h12.784
		c1.325,0,2.4,1.074,2.4,2.4V282.699z M365.406,282.699c0,1.324-1.075,2.4-2.401,2.4h-12.784c-1.325,0-2.4-1.076-2.4-2.4v-7.004
		c0-1.326,1.075-2.4,2.4-2.4h12.784c1.326,0,2.401,1.074,2.401,2.4V282.699z"/>
	<path style="fill:#000100;" d="M489.708,313.936c-0.288-0.396-0.748-0.631-1.237-0.631H1.53c-0.612,0-1.165,0.365-1.406,0.928
		c-0.241,0.561-0.125,1.213,0.297,1.656c0,0,52.945,55.713,70.596,74.283c0.288,0.303,0.689,0.475,1.107,0.475h392.194
		c0.663,0,1.25-0.426,1.455-1.057c6.039-18.57,24.151-74.283,24.151-74.283C490.076,314.842,489.996,314.332,489.708,313.936z
		 M65.254,348.955c-5.032,0-9.109-4.08-9.109-9.111c0-5.029,4.077-9.109,9.109-9.109c5.03,0,9.109,4.08,9.109,9.109
		C74.363,344.875,70.284,348.955,65.254,348.955z M110.192,348.955c-5.033,0-9.11-4.08-9.11-9.111c0-5.029,4.077-9.109,9.11-9.109
		c5.029,0,9.107,4.08,9.107,9.109C119.299,344.875,115.221,348.955,110.192,348.955z M155.128,348.955
		c-5.033,0-9.11-4.08-9.11-9.111c0-5.029,4.077-9.109,9.11-9.109c5.029,0,9.107,4.08,9.107,9.109
		C164.235,344.875,160.157,348.955,155.128,348.955z M200.065,348.955c-5.033,0-9.11-4.08-9.11-9.111
		c0-5.029,4.077-9.109,9.11-9.109c5.03,0,9.108,4.08,9.108,9.109C209.173,344.875,205.095,348.955,200.065,348.955z
		 M245.001,348.955c-5.033,0-9.11-4.08-9.11-9.111c0-5.029,4.077-9.109,9.11-9.109c5.029,0,9.108,4.08,9.108,9.109
		C254.109,344.875,250.03,348.955,245.001,348.955z M289.938,348.955c-5.032,0-9.11-4.08-9.11-9.111c0-5.029,4.078-9.109,9.11-9.109
		c5.03,0,9.108,4.08,9.108,9.109C299.046,344.875,294.968,348.955,289.938,348.955z M334.874,348.955c-5.032,0-9.11-4.08-9.11-9.111
		c0-5.029,4.078-9.109,9.11-9.109c5.03,0,9.108,4.08,9.108,9.109C343.983,344.875,339.904,348.955,334.874,348.955z
		 M379.811,348.955c-5.032,0-9.11-4.08-9.11-9.111c0-5.029,4.078-9.109,9.11-9.109c5.03,0,9.108,4.08,9.108,9.109
		C388.919,344.875,384.841,348.955,379.811,348.955z M424.747,348.955c-5.032,0-9.109-4.08-9.109-9.111
		c0-5.029,4.077-9.109,9.109-9.109c5.03,0,9.108,4.08,9.108,9.109C433.856,344.875,429.777,348.955,424.747,348.955z"/>
</g>
<g>
</g>
<g>
</g>
<g>
</g>
<g>
</g>
<g>
</g>
<g>
</g>
<g>
</g>
<g>
</g>
<g>
</g>
<g>
</g>
<g>
</g>
<g>
</g>
<g>
</g>
<g>
</g>
<g>
</g>
</svg>
